 <svg
                  fill="#3acc78"
                  xmlns="http://www.w3.org/2000/svg"
                  width="15"
                  height="15"
                  viewBox="0 0 19 19"
                >
                  <path
                    id="Union_6"
                    d="M0,9.5A9.5,9.5,0,1,1,9.5,19,9.5,9.5,0,0,1,0,9.5Zm1.4,0A8.1,8.1,0,1,0,9.5,1.4,8.109,8.109,0,0,0,1.4,9.5Zm6.764,3.316a.763.763,0,0,1-.539-.223L5.29,10.256A.763.763,0,0,1,6.37,9.178l1.8,1.8,4.418-4.419a.764.764,0,0,1,1.08,1.08L8.7,12.594a.761.761,0,0,1-.539.222Z"
                  ></path>
                </svg>