<svg xmlns="http://www.w3.org/2000/svg" fill="none" viewBox="0 0 978 1032"><mask id="a" width="978" height="516" x="0" y="0" maskUnits="userSpaceOnUse" style="mask-type:alpha"><path fill="#F7F7F7" d="M.44 0h976.57v515.78H.44z"/></mask><g mask="url(#a)"><path fill="url(#b)" d="M977 23.91H1.58v.69H977v-.69Z"/><path fill="url(#c)" d="M106.05 55.8a35 35 0 0 1-12.57-2.2c-3.42-.9-6.28-1.61-9.42-1.66H1.56v-.69h82.51c3.41.06 6.54.82 9.98 1.74l.09.03c5.5 2.2 13.27 2.72 19.31 1.26l5.26-1.1c18.45-3.87 37.52-7.87 55.99-2.08 2.25.07 4.56.11 6.79.15h91.24c3.33 0 6.58.05 9.7.58 11.21 2.59 22.96 4.82 33.14 1.47 14.25-4.46 34.9-8.43 52.4-2.03 2.7.73 5.26.82 7.45.85 9.7.13 19.76-.48 30.77-1.86 7.08-.6 14.15-.11 20.99.36 4.41.31 8.99.63 13.4.63H977v.7H440.59c-4.49 0-9.1-.33-13.56-.64-6.76-.48-13.75-.96-20.6-.37a224.7 224.7 0 0 1-31.04 1.88 30.88 30.88 0 0 1-8-.95c-17.08-6.23-37.27-2.33-51.21 2.04-10.65 3.5-22.71 1.22-34.16-1.42-2.91-.5-6.06-.54-9.29-.54h-91.29c-2.27-.04-4.63-.08-6.94-.16h-.14l-.13-.05c-18.01-5.7-36.85-1.74-55.08 2.1l-5.23 1.09a34.5 34.5 0 0 1-7.87.86Z"/><path fill="url(#d)" d="M375.78 81.53c-7.57 0-15.27-.55-23.03-1.9a185 185 0 0 0-7.83-.13c-4.88-.03-9.88.03-14.72.1-7.22.08-14.7.18-21.91-.03-2.72-.07-5.14-.07-7.58-.07-1.74 0-3.6-.04-5.67-.13-11.83-.82-24.28-.36-36.32.08-9.22.34-18.76.69-28 .47-1.19 0-2.43.05-3.64.08-3.23.1-6.56.2-10.12-.37-2.69-.08-5.66-.12-9.38-.13H160c-1.9-.03-3.87-.05-5.6-.13-7.81-.44-15.98-.13-23.88.18-9.1.35-18.5.7-27.57-.05H1.57v-.69H103.1c8.94.76 18.3.4 27.34.06 7.95-.3 16.17-.63 24.07-.18 1.69.08 3.63.1 5.52.11l.88.01h46.68a431 431 0 0 1 9.51.13l.14.01c3.39.56 6.63.46 9.78.36 1.22-.04 2.49-.07 3.73-.07 9.2.21 18.7-.13 27.9-.48 12.1-.45 24.6-.9 36.51-.08 2.02.09 3.85.13 5.56.13 2.45 0 4.89 0 7.63.07a529 529 0 0 0 21.82.03c4.85-.07 9.86-.13 14.76-.1 2.38 0 5.15 0 7.98.13l.14.01c20.17 3.56 40.07 1.7 63.75-2.2 6.47-1.21 13-.17 19.3.82 1.67.26 3.39.54 5.07.77 1.9.24 4 .33 6.04.4l1.53.07h528.27v.69H448.69l-1.57-.07a73.52 73.52 0 0 1-6.22-.43c-1.72-.23-3.45-.5-5.12-.77-6.42-1.02-12.49-1.97-18.6-.82-12.7 2.09-26.78 4.12-41.4 4.12Z"/><path fill="url(#e)" d="M231.7 108.02c-5.27 0-10.44-.28-15.49-.55a282.7 282.7 0 0 0-15.26-.55h-.04l-1.75-.02-4.8-.05H1.57v-.69h192.82l4.8.06 1.74.02h.04c5.2 0 10.36.28 15.36.55 6.65.35 13.54.72 20.59.44 7.4 0 14.9-.66 22.15-1.31 12.8-1.14 26.05-2.32 39.08.1 1.98.1 4.22.14 7.06.14h208.45l8.02.03c10.24.74 20.84.3 31.08-.11 11.05-.46 22.49-.92 33.5.07l7.97.01H977v.69H594.23l-8.13-.02c-10.88-.98-22.25-.52-33.25-.06-10.3.42-20.96.86-31.26.1-2.6 0-5.27 0-7.94-.02H305.22c-2.9 0-5.21-.05-7.23-.15l-.14-.01c-12.78-2.38-25.9-1.22-38.58-.09-7.3.65-14.85 1.32-22.3 1.32-1.77.06-3.52.1-5.26.1Z"/><path fill="url(#f)" d="M529.4 136.02c-7.83 0-15.77-.54-23.94-1.84H1.56v-.68h504.07l.08.01c23.4 3.75 45.12 1.07 67.17-2.28 6.76-1.27 12.84-.17 18.73.9 3.6.65 7.03 1.27 10.6 1.37H977v.7H602.18c-3.76-.12-7.4-.78-10.94-1.42-5.7-1.03-11.58-2.09-18-.89-14.56 2.2-28.98 4.13-43.84 4.13Z"/><path fill="url(#g)" d="M976.76 160.97H1.32v.69h975.44v-.69Z"/><path fill="url(#h)" d="M363.77 191.88c-2.42 0-4.45-.45-6.6-.92-1.17-.25-2.37-.52-3.74-.74a45.65 45.65 0 0 0-6.94-.85H1.57v-.7h344.96c2.58.13 5 .43 7.28.9 1.38.22 2.6.49 3.78.75 2.14.47 3.98.87 6.17.87 8.71 0 17.6-1.18 26.2-2.31 14.1-1.87 28.66-3.8 43.03-.66 2.17.21 4.28.3 6.33.38.65.02 1.3.04 1.93.08h535.76v.69H441.2l-1.97-.09c-2.1-.08-4.26-.17-6.5-.38l-.13-.02c-14.03-3.07-28.43-1.17-42.37.67-8.66 1.14-17.62 2.32-26.47 2.32Z"/><path fill="url(#i)" d="M483.8 219.71c-6.34 0-12.69-.72-19-2.67-2.66-.08-5.32-.13-8.03-.18h-15.82c-2.6 0-5.29 0-7.9-.09-3.74.04-7.51-.37-11.16-.76-4.42-.47-8.6-.92-12.83-.66-21.4 2.51-41.02 3-61.73 1.5H1.57v-.69H347.4a317.94 317.94 0 0 0 61.46-1.49c4.49-.28 8.95.2 13.26.66 3.59.39 7.3.79 10.96.74 2.62.1 5.3.1 7.87.1h15.84c2.78.04 5.48.1 8.22.19h.14l.12.04c15.22 4.74 30.88 2.09 46.01-.48 4.79-.8 9.74-1.65 14.63-2.24 10.2-1.57 20.7.69 28.38 2.36l1.18.02c2.25.02 4.5.06 6.75.1H977v.7H562.2c-2.26-.06-4.5-.08-6.74-.12l-1.5-.04c-9.77-2.12-18.6-3.77-27.75-2.36-4.87.6-9.8 1.43-14.56 2.23-9.16 1.57-18.5 3.14-27.86 3.14Z"/><path fill="url(#j)" d="M976.07 243.6H.63v.69h975.44v-.7Z"/><path fill="url(#k)" d="M234.27 271.81c-5.53 0-11.06-.02-16.46-.05-2.17-.02-4.42-.02-6.68-.02H.43v-.69h210.7c2.27 0 4.53 0 6.7.02 11.68.08 23.95.08 35.5-.02h722.55v.69H253.33c-6.21.05-12.63.07-19.06.07Z"/><path fill="url(#l)" d="M210 301.56c-6.77 0-13.4-.87-19.72-1.89-2.47-.37-4.9-.47-7.24-.56l-.8-.04H.44v-.68h181.85l.84.03c2.4.1 4.88.2 7.48.6 9.32 1.5 19.33 2.67 29.34 1.13 3.27-.44 6.56-.95 9.75-1.43 15.14-2.32 30.8-4.72 45.8-.52 2.23.19 4.56.2 6.82.21l.46.01c14.93 1.53 29.82.6 44.22-.28 15.77-.97 32.07-1.98 48.34.25l156.8.02c15.98 3.16 30.54 1.45 45.96-.35 2.64-.3 5.38-.63 8.13-.92 9.95-1.3 20.79-.9 34.06 1.25h355.58v.68H620.13l-.08-.01c-13.11-2.13-23.77-2.52-33.56-1.25-2.76.3-5.5.62-8.14.93-15.55 1.81-30.24 3.53-46.51.33h-156.7c-16.1-2.21-32.32-1.2-48-.24-14.47.89-29.43 1.81-44.52.28h-.31a93.55 93.55 0 0 1-7.08-.23l-.18-.03c-14.62-4.12-29.39-1.86-45.02.53-3.2.5-6.51 1-9.77 1.43-3.45.53-6.87.75-10.27.75Z"/><path fill="url(#m)" d="M561.13 327.5c-8.86 0-17.14-.5-24.91-1.09H359.47c-2.74 0-5.3-.03-7.61-.1-9.1-.23-18.66-.04-27.9.14-11.16.22-22.7.45-33.84-.04H.44v-.69h289.73c11.12.49 22.62.26 33.75.04 9.27-.18 18.85-.37 28-.13 2.29.06 4.84.08 7.55.1H536.3c10.46.78 21.74 1.42 34.04.89 3.13-.24 6.36-.57 9.47-.88 10-1.02 20.34-2.08 30.42-.3 1.75.18 3.88.23 5.93.27l.58.01h359.14v.69H616.7l-.6-.01c-2.1-.05-4.27-.1-6.19-.3-9.85-1.73-20.04-.7-29.9.31-3.13.32-6.37.65-9.56.89-3.18.14-6.29.2-9.33.2Z"/><path fill="url(#n)" d="M479.17 356.24c-7.53 0-14.98-.48-22.62-1.67-2.54-.08-5.25-.09-7.87-.1H1.57v-.68h447.11c2.67 0 5.42.01 8 .1h.13c19.96 3.12 38.7 1.36 61.12-1.28 8.94-1.08 17.56-.36 25.88.34 3.37.29 6.84.58 10.31.75l1.76.01 6.33.07h414.8v.69H562.2l-6.34-.07-1.8-.02c-3.54-.17-7.04-.47-10.42-.75-8.6-.72-16.73-1.4-25.45-.35-14.04 1.66-26.65 2.96-39.03 2.96Z"/><path fill="url(#o)" d="M235.47 385.47c-6.12 0-12.32-.9-18.77-3.34l-1.5-.02c-1.76-.02-3.5-.04-5.25-.08H1.56v-.69h208.4c1.75.04 3.5.06 5.26.09l1.85.02.15.06c14.9 5.67 28.6 2.82 43.1-.18 4.7-.98 9.6-1.99 14.6-2.73 8.3-1.27 17.92-.61 30.26 2.08 2.34.43 4.6.53 6.99.64l.65.02h103.55c2.5 0 5.16.06 8.1.19 17.7.73 35.64.23 52.98-.25 19.72-.55 40.1-1.13 60.6.07H977v.69H537.99c-20.46-1.2-40.8-.63-60.47-.08-17.39.5-35.35 1-53.13.26-2.91-.13-5.53-.18-8.01-.18h-103.6l-.7-.03c-2.36-.1-4.8-.21-7.3-.67-12.12-2.64-21.5-3.3-29.53-2.07-4.96.73-9.8 1.74-14.5 2.71-8.55 1.77-16.84 3.49-25.28 3.49Z"/><path fill="url(#p)" d="M381.34 411.84c-5.02 0-9.52-.71-13.9-1.41a139.5 139.5 0 0 0-6.98-1l-2.54-.02-5.2-.04H1.58v-.69h351.17l5.2.04 2.7.03c2.42.26 4.82.64 7.14 1 5.07.82 10.31 1.65 16.29 1.32 3.16-.42 6.37-.9 9.48-1.36 15.24-2.25 31-4.59 46.35-1.79 3.2.46 6.12.63 8.85.76h528.27v.69H448.69a90.7 90.7 0 0 1-9.13-.79c-15.04-2.74-30.63-.43-45.7 1.8-3.13.46-6.37.94-9.55 1.37h-.08c-.99.07-1.94.1-2.89.1Z"/><path fill="url(#q)" d="M384.57 437.68c-4.6 0-9.22-.23-13.82-.86a391.6 391.6 0 0 0-7.24-.1h-41.83l-2.61-.06a283.8 283.8 0 0 1-5.65-.14c-9.63-.85-19.34-.34-28.74.16-9.9.53-20.12 1.08-30.28.04H1.57v-.7h252.95l.05.02c10.01 1.03 20.17.48 30-.04 9.47-.5 19.26-1.03 28.98-.16 1.86.07 3.74.1 5.56.14l2.6.06h41.8c2.33.02 4.8.04 7.36.1h.11c11.05 1.52 22.34.7 33.25-.1 6.5-.48 13.2-.97 19.83-.97.8 0 1.64-.03 2.54-.06 3-.09 6.38-.2 9.41.68 1.6.2 3.52.26 5.37.31l1 .03H977v.69H442.35l-1.02-.03a57.99 57.99 0 0 1-5.65-.34l-.15-.03c-2.75-.8-6-.7-8.86-.61-.91.02-1.77.05-2.6.05-6.55 0-13.22.49-19.67.96-6.51.47-13.15.96-19.83.96Z"/><path fill="url(#r)" d="M604.78 466.67a70 70 0 0 1-7.91-.44c-14.04-1.82-27.89-1.79-41.28-1.76-8.47.02-17.22.04-25.75-.42h-8.05c-14.97-.73-30.06-.43-44.65-.13-11.5.23-23.4.46-35.02.19h-.65l-7.13-.05H332.1l-.66-.03c-2.23-.1-4.53-.2-6.7-.46l-1.52-.27c-10.4-1.77-20.21-3.44-30.18-1.57-26.35 4.4-47.37 6.35-70.7 2.45-2.2-.12-4.47-.12-6.66-.12H1.57v-.69h214.09c2.25 0 4.57 0 6.84.13l.1.01c23.08 3.85 43.91 1.92 70.05-2.45 10.32-1.94 20.79-.15 30.9 1.58l1.48.25c2.04.25 4.3.35 6.49.45l.61.03h102.22l7.14.04.67.01c11.59.28 23.46.04 34.93-.2 14.63-.29 29.76-.59 44.75.15h8.05c8.54.46 17.26.44 25.69.42 13.47-.04 27.39-.07 41.54 1.77 11.2 1.26 20.53-.5 30.41-2.36 5.48-1.03 11.15-2.1 17.25-2.64 8.07-.65 15.49.38 22.66 1.37 4 .56 8.16 1.13 12.38 1.4l5.75.04H977v.69H685.56l-5.82-.04c-4.36-.28-8.55-.86-12.6-1.42-7.39-1.02-14.36-1.99-22.18-1.36-6 .54-11.6 1.59-17.04 2.61-7.65 1.45-14.99 2.82-23.14 2.82Z"/><path fill="url(#s)" d="M589.03 494.24c-4.28 0-8.38-.65-12.38-1.28-4.51-.72-9.17-1.45-14.02-1.23H529.9l-2.83-.02-5.22-.02c-36.58-2.46-73.52-.43-109.23 1.54-9.83.79-18.93.04-28.56-.76-2.51-.2-5.12-.42-7.7-.6-2.85-.13-5.7-.14-7.85-.14H1.57v-.7h366.92c2.18 0 5.06.02 7.97.15 2.64.19 5.24.4 7.76.6 9.54.8 18.56 1.54 28.23.76 35.81-1.97 72.81-4 109.46-1.54l5.16.02 2.83.02h32.7c5-.22 9.77.53 14.38 1.26 6.03.95 11.74 1.85 18.06.75 22.22-3.13 42.3-5.44 63.41-2.01h318.56v.69H658.27l-.08-.02c-20.84-3.4-40.79-1.1-62.83 2a36.5 36.5 0 0 1-6.33.53Z"/><path fill="url(#t)" d="M597.22 520.17c-3.3 0-6.57-.12-9.8-.45l-1.06-.07c-2.9-.2-5.64-.39-8.13-.44H1.57v-.7h576.69a176 176 0 0 1 8.25.46l1.1.07c9.34.92 19.14.2 28.62-.5 10.91-.8 22.2-1.62 33.12-.04h2.24l5.31.02H977v.69H656.9l-5.32-.02-2.47-.02c-10.71-1.57-21.9-.74-32.73.05-6.31.48-12.77.95-19.16.95Z"/><path fill="url(#u)" d="M34.33-3.38h-.81v549.74h.81V-3.38Z"/><path fill="url(#v)" d="M66.86 546.36h-1.09V79.1c-.14-2.1.3-4.14.72-6.1.6-2.81 1.17-5.46.16-8.3-1.94-8.17-2.92-14.95-1.43-21.58.45-2.38.53-4.27.55-5.8v-40.7h1.1v40.71c-.03 1.57-.1 3.5-.57 5.95-1.47 6.5-.5 13.17 1.4 21.2 1.07 3 .45 5.89-.14 8.67-.4 1.92-.83 3.9-.7 5.92v467.28Z"/><path fill="url(#w)" d="M98.44 546.36v-35.9l.08-.1c5.44-8.13 2.56-16.3-.22-24.22-.65-1.85-1.32-3.75-1.88-5.64-1.97-5.55-1.63-11.5.96-16.3.58-1.5.93-2.7 1.06-3.76V-3.38h1.1v463.9a16.9 16.9 0 0 1-1.13 3.98l-.02.05c-2.45 4.55-2.8 10.42-.91 15.71.56 1.89 1.22 3.79 1.87 5.63 2.83 8.06 5.77 16.4.2 24.83v35.64h-1.1Z"/><path fill="url(#x)" d="M132 546.36h-.8V312.58c.04-1.64.13-3 .28-4.13.8-4.55.28-9.3-.22-13.9-.5-4.49-1-9.13-.29-13.6.13-1.45.16-2.82.2-4.15l.01-.74V-3.38h.82v279.45l-.02.74a72 72 0 0 1-.2 4.21c-.7 4.41-.2 9.01.3 13.47.5 4.63 1.02 9.43.21 14.05a43.6 43.6 0 0 0-.28 4.05v233.77Z"/><path fill="url(#y)" d="M946.1 546.36h-.82V312.58c.05-1.64.14-3 .28-4.13.8-4.55.29-9.3-.22-13.9-.5-4.49-1-9.13-.28-13.6.12-1.45.15-2.82.2-4.15l.01-.74V-3.38h.81v279.45l-.01.74a71.13 71.13 0 0 1-.2 4.21c-.7 4.41-.2 9.01.29 13.47.51 4.63 1.03 9.43.22 14.05a43.2 43.2 0 0 0-.29 4.05v233.77Z"/><path fill="url(#z)" d="M163.74 546.36h-.82v-52.7c0-1.28.08-2.54.26-3.73 1.45-8.95.37-17.4-.76-26.32-.32-2.5-.65-5.1-.91-7.67 0-3 .42-6.67 1.3-11.23.08-1.02.12-2.11.12-3.32V427.6l.49-4.96c1.44-14.3 2.8-27.82-2.5-42.11-1.5-5.11-1.1-11.02 1.25-18.62.34-1.68.62-3.22.75-4.7v-35.79l.01-.03c.3-1.74.75-3.52 1.19-5.24.95-3.74 1.93-7.61 1.53-11.67a71.75 71.75 0 0 0-2.6-9.9c-2.4-7.65-4.68-14.88-.93-22.35.7-1.78.75-3.82.81-5.8V120.78l.03-.06c.3-.77.5-1.54.68-2.29l.3-1.17c2.2-4.84 2.58-8.94 1.14-12.58-3.62-11.2-6.52-22.14-2.39-32.95.24-2.1.24-4.17.24-5.83V-3.38h.81V65.9c0 1.69 0 3.8-.24 5.93l-.02.08c-4.08 10.63-1.2 21.48 2.38 32.57 1.49 3.78 1.12 8.03-1.15 12.99l-.27 1.1c-.2.75-.38 1.52-.69 2.31v145.59c-.05 2.03-.1 4.12-.85 6.02-3.66 7.29-1.42 14.4.94 21.94a71.68 71.68 0 0 1 2.62 10c.42 4.18-.58 8.1-1.54 11.88-.43 1.7-.88 3.46-1.17 5.17v35.75c-.14 1.54-.44 3.1-.78 4.83-2.33 7.52-2.73 13.31-1.26 18.29 5.33 14.4 3.96 27.98 2.51 42.36-.16 1.63-.33 3.27-.48 4.93v13.74c0 1.22-.04 2.34-.14 3.4a60.86 60.86 0 0 0-1.29 11.12c.26 2.54.6 5.12.91 7.62 1.14 8.99 2.22 17.46.76 26.5a26.33 26.33 0 0 0-.24 3.64v52.7Z"/><path fill="url(#A)" d="M196.85 546.36h-.81V488.9c4.1-15.16 1.2-29.83-2.56-43.42-1.15-4.83.42-9.67 1.95-14.35l.24-.77c.09-.55.14-1.13.2-1.7.04-.5.1-1 .17-1.5V412.9c1.17-9.65.49-19.66-.17-29.33-.23-3.33-.47-6.77-.62-10.12-.62-3.63.05-6.81.7-9.9.04-1.48.06-2.99.08-4.5v-28.43c0-1.47 0-3 .08-4.43.85-6.96.46-13.91.06-20.64-.29-5.09-.59-10.35-.34-15.5.08-1.26.13-2.5.17-3.7l.04-1.13V74.42l.05-.08c1.18-1.82 1.09-3.67.99-5.63-.03-.52-.06-1.07-.06-1.62 0-3.43-.53-6.85-1.04-10.16-.83-5.35-1.69-10.88-.34-16.63.36-2.04.37-3.7.39-5.3V-3.38h.81V35a31.12 31.12 0 0 1-.4 5.42c-1.33 5.65-.48 11.13.34 16.43.51 3.33 1.05 6.77 1.05 10.24 0 .53.02 1.07.05 1.6.1 1.95.2 3.95-1.04 5.91v210.64l-.04 1.14c-.04 1.21-.08 2.46-.16 3.73-.25 5.12.05 10.36.34 15.43.4 6.76.79 13.74-.06 20.73-.08 1.4-.08 2.9-.08 4.37v28.44c-.01 1.53-.04 3.05-.08 4.54v.06c-.65 3.03-1.32 6.17-.72 9.73.16 3.38.4 6.82.62 10.14.67 9.7 1.35 19.74.17 29.41v14.27c-.07.53-.12 1.02-.17 1.52-.05.58-.11 1.17-.2 1.75v.05l-.26.79c-1.5 4.6-3.04 9.36-1.94 14.02 3.78 13.65 6.7 28.4 2.57 43.68v57.33h.02Z"/><path fill="url(#B)" d="M229.7 546.36h-.82V335.1c0-1.44.02-2.99.14-4.57-.02-1.58.3-3.3.6-4.96.29-1.63.56-3.17.56-4.61 0-5.23-.54-10.55-1.07-15.7-.83-8.1-1.7-16.5-.43-24.75l.01-.62c.05-1.27.1-2.58.2-3.85V80.85a17 17 0 0 1 1.12-3.97c4.07-8.05 1.23-15.75-1.78-23.9-1-2.7-2.03-5.5-2.78-8.3-.8-3.36.49-6.09 1.73-8.73.65-1.38 1.33-2.81 1.7-4.32v-35h.8v35.1c-.38 1.58-1.08 3.05-1.74 4.48-1.25 2.66-2.44 5.17-1.7 8.33a96.4 96.4 0 0 0 2.76 8.23c2.93 7.91 5.94 16.1 1.76 24.36a17.31 17.31 0 0 0-1.07 3.76v195.19a83.6 83.6 0 0 0-.19 3.84l-.02.65c-1.25 8.2-.4 16.56.43 24.64a155.4 155.4 0 0 1 1.07 15.76c0 1.5-.3 3.13-.58 4.71-.29 1.64-.59 3.33-.57 4.88a58.91 58.91 0 0 0-.14 4.55v211.25Z"/><path fill="url(#C)" d="M262.08 546.36h-.82V448.1l.01-.03c.12-.7.08-1.4.04-2.05-.05-.94-.1-1.82.26-2.73l.04-.06c4.84-7.3 2.3-14.2-.4-21.5-1.81-4.92-3.69-10.01-3.21-15.34.28-1.41.68-2.7 1.07-3.94.46-1.5.94-3.04 1.2-4.74l.02-.06c.52-1.35.83-2.7.97-4.1V239.49c0-1.5 0-3.05.09-4.57 2.69-16.17 4.15-29.71-3.33-44.76-2.22-3.74-.56-8.3 1.05-12.7.57-1.6 1.18-3.25 1.57-4.8.27-1.09.4-2.19.5-3.25l.12-1.03V97.07l.04-.07c6.8-12.58 1.9-23.6-3.28-35.29-2.13-5.03-.35-10.08 1.36-14.98a52.1 52.1 0 0 0 1.88-6.14V-3.38h.82l-.01 44.06a52.98 52.98 0 0 1-1.9 6.25c-1.68 4.78-3.42 9.73-1.38 14.55 5.24 11.79 10.19 22.93 3.29 35.74v71.2l-.12 1.05c-.11 1.09-.23 2.2-.52 3.32-.4 1.59-1 3.26-1.58 4.87-1.56 4.27-3.17 8.7-1.09 12.21 7.57 15.24 6.1 28.87 3.39 45.12-.08 1.48-.08 3-.08 4.5v154.1a16.23 16.23 0 0 1-1 4.25c-.28 1.74-.76 3.29-1.22 4.8-.39 1.23-.79 2.5-1.05 3.85-.47 5.16 1.39 10.2 3.19 15.06 2.62 7.1 5.33 14.45.34 22-.3.79-.25 1.6-.21 2.45.04.69.07 1.4-.05 2.16v98.2Z"/><path fill="url(#D)" d="M294.64 546.36h-.82l.01-26.77c2.7-13.46 2.04-25.73-2.07-38.61-1.68-4.25-.44-8.26.76-12.14.5-1.64 1.04-3.34 1.3-5v-29c.55-5.88.3-11.85.05-17.61-.15-3.48-.3-7.07-.28-10.57.15-1.02.2-2.2.23-3.24V85.45c0-1.96 0-4.05.08-6.25.36-3.45.07-6.9-.21-10.24-.34-4.01-.69-8.15.13-12.16V-3.38h.81V56.9c-.81 3.93-.48 7.86-.13 12.02.28 3.37.58 6.85.21 10.33-.07 2.17-.07 4.25-.07 6.2v318c-.04 1.06-.08 2.26-.24 3.27-.02 3.44.13 7.03.28 10.5.25 5.79.5 11.77-.05 17.66v29.05c-.28 1.7-.81 3.43-1.33 5.1-1.17 3.79-2.37 7.7-.77 11.77 4.14 12.99 4.81 25.34 2.1 38.9v26.67Z"/><path fill="url(#E)" d="M431.77 546.38c-.48-5.13-.99-26.62-1.6-67.63a58.34 58.34 0 0 1 0-3.5c.34-20.22-.31-40.84-.94-60.77-.68-21.83-1.4-44.42-.83-66.69.03-1.4.01-2.79 0-4.11-.92-71.13-1.68-120.18-2.45-128.4l-.8-8.59c-.22-2.37-.47-16.52-.65-38.8-.01-1.05-.02-2.24 0-3.36.46-3.5.46-7.04.46-10.47.56-6.3-.06-12.57-.66-18.63-.68-6.91-1.38-14.05-.33-21.15.14-1.53.2-2.98.23-4.32l-.02-8.35v-4.18c1.5-16.35 1.2-30.4-1-44.28-.93-3.96-.4-7.58.17-11.42.15-1.02.3-2.07.43-3.14l.08-.62c.12-.88.24-1.8.5-2.66.19-23.4.54-36.43 1.03-38.74l.8.13c-.47 2.23-.82 15.6-1.02 38.66l-.01.08c-.25.83-.36 1.7-.48 2.61l-.08.62-.44 3.14c-.55 3.78-1.08 7.35-.16 11.23 2.2 13.93 2.52 28.04 1 44.41l.01 4.16c0 2.78 0 5.57.02 8.35a57.55 57.55 0 0 1-.24 4.4c-1.04 7.03-.34 14.14.33 21 .6 6.1 1.23 12.4.67 18.72 0 3.42 0 6.99-.46 10.5a121 121 0 0 0 0 3.3c.19 22.27.42 36.4.65 38.76l.8 8.59c.78 8.23 1.54 57.3 2.45 128.44.02 1.33.04 2.72.01 4.13-.57 22.26.15 44.84.83 66.67.63 19.94 1.28 40.56.95 60.8a61.43 61.43 0 0 0-.02 3.47c.62 41 1.13 62.48 1.61 67.6l-.84.04Z"/><path fill="url(#F)" d="M459.45 546.72c-.46-.05-.46-.05-.54-6.11-.04-3.53-.07-8.75-.1-15.51-.03-11.72-.04-28.38 0-49.53.05-37.7.2-80.29.27-98.48l.02-6.33c0-1.79.04-2.8.06-3.05 1.04-6.16.8-12.33.58-18.32-.18-5.02-.39-10.22.16-15.46 0-1.74.3-3.66.6-5.51.29-1.83.58-3.73.58-5.46v-.04c.91-5.4-.25-10.79-1.38-16-1.06-4.86-2.15-9.89-1.58-14.98.34-1.74.88-3.5 1.41-5.2.4-1.29.82-2.62 1.15-3.97.44-1.59.74-3.2.95-5.06.2-5.08.02-9.9-.55-14.69-1.95-16.09-1.33-32.45-.73-48.27.3-8.28.63-16.84.58-25.28l.04-3.7.03-3.63c0-1.16.25-2.44.76-4.03l.2-.59c1.63-4.98 3.17-9.67 1.5-14.38-5.33-14.41-3.94-28.69-2.6-42.5l.47-4.86v-3.52c.21-54.9.19-95.96-.05-115.64h.82c.23 19.68.26 60.75.05 115.65l-.01 3.55-.47 4.89c-1.4 14.37-2.72 27.95 2.57 42.23 1.74 4.9.17 9.7-1.5 14.78l-.2.59c-.5 1.52-.72 2.75-.73 3.85l-.02 3.63-.05 3.7c.05 8.43-.27 17-.58 25.28-.6 15.8-1.21 32.14.72 48.19.57 4.82.75 9.66.56 14.79a32.44 32.44 0 0 1-.97 5.18c-.34 1.34-.75 2.7-1.16 4a50.94 50.94 0 0 0-1.39 5.1c-.56 4.97.52 9.95 1.57 14.77 1.14 5.25 2.32 10.68 1.4 16.18 0 1.77-.3 3.67-.6 5.51a35.8 35.8 0 0 0-.58 5.46c-.53 5.22-.34 10.4-.14 15.4.22 6.02.46 12.23-.6 18.41 0 .2-.03 1.21-.04 2.99l-.02 6.33c-.48 137.87-.27 168.1-.01 169.19l-.38.07.4.1-.47.28Z"/><path fill="url(#G)" d="M496.52 546.7c-.48-.08-.64-.12-1.05-23.15-.03-1.8-.07-3.65.11-5.71 2.23-16.22-.3-33.31-2.54-48.4-.55-7.36-.13-14.79 1.3-23.4 0-1.18.02-2.57.06-3.96l-.1-7.63.01-.04c.4-1.68.92-3.37 1.42-5.02 1.6-5.28 3.25-10.74 1.47-16.38l-.37-1.38c-4.62-17.03-8.98-33.11-3.88-49.63l.05-.88c.06-1.43.13-2.93.25-4.39-.13-5.58-.34-11.3-.53-16.83-.6-17.07-1.22-34.73.1-51.88.01-1.06.02-2.12.05-3.16v-34.52c-.2-5.31.31-10.65.8-15.8.6-6.35 1.21-12.9.56-19.5-.3-3.13-.79-6.32-1.25-9.4-1.32-8.76-2.68-17.82-.4-26.95l.03-.51c.05-1.08.1-2.18.25-3.26V-3.38h.81v178.34c-.14 1.1-.2 2.19-.25 3.25l-.04.6c-2.26 9.01-.91 18.03.4 26.74.46 3.1.94 6.29 1.25 9.44.66 6.65.03 13.23-.56 19.6-.48 5.14-.99 10.46-.8 15.75v34.53l-.05 3.15v.04c-1.3 17.13-.69 34.77-.1 51.82.2 5.53.4 11.25.53 16.87-.12 1.49-.18 2.97-.25 4.4l-.06 1c-5.07 16.36-.73 32.37 3.87 49.33l.37 1.37c1.83 5.8.16 11.35-1.47 16.72-.49 1.63-1 3.3-1.4 4.95l.1 7.58c-.05 1.4-.06 2.77-.07 4-1.42 8.61-1.83 16-1.3 23.29 2.24 15.1 4.78 32.25 2.55 48.53-.17 2.02-.14 3.86-.12 5.63.26 14.47.49 22.1.69 22.7a.38.38 0 0 0-.33-.2l-.03.32.38.16-.46.18Z"/><path fill="url(#H)" d="m525.96 546.36-.82-.02c.24-7.7.5-24.01.82-49.88l.07-5.68c.14-2.92.6-5.59 1.09-8.4l.26-1.51c0-5.22-.47-10.44-.92-15.5-.8-8.96-1.64-18.21.14-27.54l.03-3.66c.18-18.55.37-38.56.55-59.47l.07-.6c.11-1.07.23-2.18.63-3.15a18.48 18.48 0 0 0 1.88-11.45l-.4-1.3c-2.78-9.36-5.4-18.2-2.53-28.02.4-1.45.64-2.86.78-4.58l.18-21c.05-1.2.11-2.7.61-3.95l.04-.06c4.26-6.46 2-12.92-.39-19.77-.94-2.7-1.92-5.5-2.43-8.26-.64-6.54.82-12.33 2.52-17.62l.02-.88c.02-1.09.06-2.18.1-3.27l.63-72.74c0-1.06.01-2.12.03-3.15-.45-2.87.17-5.68.76-8.4.63-2.88 1.28-5.84.68-8.87-1.69-9-3.03-18.69-1.48-28.69.17-.89.28-1.75.39-2.58l.1-.71c.33-35.44.61-62.72.87-83.38l.1-8.55c.03-4.75.05-9.24.2-13.93l.07-3.9c.14-8.8.28-15.28.4-19.25l.81.02c-.12 3.97-.26 10.44-.4 19.24l-.07 3.9c-.15 4.69-.18 9.17-.2 13.92l-.03 3.6-.08 4.93c-.26 20.65-.54 47.94-.88 83.41l-.1.75c-.1.84-.22 1.7-.4 2.6-1.52 9.9-.18 19.54 1.49 28.48.62 3.14-.04 6.17-.69 9.1-.6 2.8-1.2 5.45-.75 8.22l.01.02v.03l-.04 3.17-.62 72.75-.1 3.26-.04 1.01c-1.68 5.25-3.14 10.99-2.5 17.41.5 2.7 1.46 5.47 2.4 8.15 2.33 6.67 4.74 13.57.33 20.27-.41 1.07-.5 2.26-.55 3.72l-.18 21c-.15 1.8-.4 3.24-.81 4.72-2.83 9.67-.22 18.43 2.54 27.69l.4 1.35c.62 4.19-.05 8.26-1.93 11.83-.35.86-.47 1.93-.57 2.96l-.07.58-.54 59.44-.05 3.74c-1.75 9.25-.93 18.47-.13 27.4.46 5.08.93 10.33.93 15.58v.05l-.27 1.53c-.48 2.8-.94 5.45-1.08 8.32l-.06 5.68a3278 3278 0 0 1-.82 49.9Z"/><path fill="url(#I)" d="M551.36 546.36c-.2-12.4.03-45.61.71-98.72l.05-3.76c.05-1.24.38-2.58.7-3.87.46-1.88.95-3.82.6-5.55v-.05c0-2.65-.48-5.26-.93-7.77-.58-3.14-1.18-6.39-.84-9.75l.09-1.96c.57-12.43 1.1-24.18 1.29-36.7l.07-1.58.1-2.44.04-.12c3.99-8.3 2.1-16.35.1-24.88-1.03-4.3-2.07-8.75-2.28-13.2-.6-2.56 0-5.15 1.67-7.12.63-1.32 1-2.45 1.12-3.55.1-6.9.22-13.89.34-20.9.05-1.36.18-2.85.7-4.52l.03-.06c4.2-7.38 1.96-14.65-.42-22.35-1.4-4.56-2.85-9.27-2.85-14.02 0-1.88.86-3.5 1.77-5.23a19.6 19.6 0 0 0 1.51-3.37l.05-1.27.09-2.78c.28-17.03.57-33.97.87-50.55.04-2.12.14-4.2.33-6.16l.59-5.1.01-.07c.45-1.29.86-2.77 1.25-4.2.2-.8.42-1.56.63-2.26 0-4.87-.65-9.72-1.28-14.42-.86-6.38-1.75-12.98-1.03-19.7-.13-1.57-.3-3.23-.5-5.07-.38-3.27-.82-6.7-1.32-10.2-.52-3.08.71-5.73 2.02-8.53l.61-1.32c.1-1.83.15-3.65.18-5.4l.78-41.02c.04-2.03.09-4.1.2-6.1l.24-2.02c2.07-17.09 4.02-33.23-1.66-50-1.8-6.1.02-12.23 2.26-17.95.62-1.55.66-2.92.69-4.13h.4l.41.02a11.77 11.77 0 0 1-.73 4.32c-2.2 5.62-4 11.65-2.25 17.56 5.72 16.88 3.76 33.1 1.69 50.25l-.25 2c-.1 1.95-.15 4.04-.19 6.05l-.78 41.03c-.03 1.78-.1 3.61-.19 5.48l-.02.1-.64 1.39c-1.27 2.71-2.47 5.27-1.98 8.18.5 3.52.96 6.95 1.33 10.23.21 1.86.38 3.53.51 5.11v.06c-.7 6.67.17 13.24 1.03 19.6.63 4.72 1.3 9.61 1.3 14.53l-.02.08-.65 2.3c-.39 1.42-.78 2.9-1.24 4.2-.19 1.67-.38 3.36-.59 5.08-.18 1.94-.29 4-.33 6.1-.3 16.58-.59 33.52-.87 50.56l-.1 2.78-.05 1.38c-.37 1.25-.98 2.4-1.57 3.52-.88 1.65-1.7 3.22-1.7 4.95 0 4.66 1.44 9.33 2.83 13.85 2.3 7.47 4.68 15.18.38 22.78a16.7 16.7 0 0 0-.68 4.34l-.33 20.92a11.9 11.9 0 0 1-1.2 3.81l-.05.07a7.45 7.45 0 0 0-1.55 6.63v.06c.21 4.41 1.25 8.85 2.26 13.13 1.94 8.23 3.95 16.73-.1 25.22-.05.8-.08 1.6-.11 2.38l-.07 1.58c-.18 12.52-.72 24.27-1.29 36.7l-.09 1.98c-.33 3.29.26 6.5.83 9.6.47 2.53.95 5.15.95 7.85.35 1.84-.14 3.84-.62 5.78a19.3 19.3 0 0 0-.69 3.74l-.05 3.76c-.67 53.1-.9 86.3-.7 98.7l-.82-.02Z"/><path fill="url(#J)" d="m318.53 546.36-.81-.01c.75-72.92 8.14-484.67 13.34-549.75l.81.04c-5.2 65.07-12.59 476.8-13.34 549.72Z"/><path fill="url(#K)" d="M361.56 546.36h-.82c.08-25.23-.77-112.2-1.6-193.96v-.12c-.02-1.31-.03-2.62-.02-4.11.14-2.68.1-5.54-.11-7.68l-.04-4.03c-.02-1.47-.03-2.96-.03-4.58a52.92 52.92 0 0 1-.1-8.75l-.34-32.57-.01-2.75c.38-2.92.1-5.8-.17-8.58-.27-2.72-.52-5.3-.2-7.9-.08-1.5-.1-2.82-.1-4.03.01-1.44.08-2.75.2-3.99l-.05-4.03c-1.14-108.56-2.42-231.6-2.33-262.72h.81c-.09 31.11 1.2 154.16 2.33 262.71l.04 4.06a46 46 0 0 0-.19 3.97c0 1.2.03 2.5.1 4.02v.06c-.33 2.55-.07 5.1.2 7.8.27 2.8.56 5.7.17 8.66l.01 2.7v1.2l.33 31.4a53.4 53.4 0 0 0 .11 8.7c0 1.65.02 3.14.03 4.6l.04 4c.22 2.14.25 5.04.11 7.73 0 1.47 0 2.78.02 4.08v.13c.83 81.77 1.68 168.75 1.6 193.98Z"/><path fill="url(#L)" d="M584.97 546.38h-.81c0-6.2.04-17.78.12-35.43l.03-5.79c.17-.99.5-2 .83-3 .6-1.88 1.23-3.83.86-5.73l-.01-.06c-.15-1.79-.3-3.65-.36-5.44.1-5.64-.2-11.4-.5-16.98-.76-14.24-1.55-28.96 4.44-42.67.55-1.61.83-3.32.83-5.04 0-6.62-4-12.86-7.9-18.9-1-1.57-2.04-3.2-2.98-4.77-.94-1.6-.82-3.48-.7-5.14.02-.53.06-1.03.06-1.5 3.89-28.75 6.28-59.76 7.31-94.86l.17-5.92c-.17-2.66.41-5.23.96-7.71.75-3.35 1.45-6.52.46-9.88-3.15-8.5-2.24-16.85-.94-23.89v-5.9c-.04-14.23-.2-28.23-.32-38.83l-.07-5.54c-.2-3.35.54-6.77 1.26-10.08.98-4.5 2-9.15.65-13.71-.45-1.64-.92-3.27-1.38-4.85-3.16-10.94-6.15-21.27-.66-32.13.03-1.62.04-3.33.03-5.09-.03-6.2-.27-12.54-.5-18.66-.5-12.6-1-25.64.4-38.34.07-.71.11-1.41.16-2.1l.08-1.1c.04-1.13.11-2.13.18-3.06 1.7-8.47.9-16.8.13-24.87-.53-5.49-1.07-11.16-.83-16.83.6-5.62 1.17-11.53 1.05-16.83.04-1.65.05-3.28.05-4.8.03-6.2.03-11.04.03-14.35h.82l-.03 14.35c-.01 1.52-.02 3.16-.05 4.8.13 5.31-.45 11.25-1.06 16.87-.24 5.6.3 11.26.83 16.74.77 8.1 1.58 16.48-.12 25a77 77 0 0 0-.19 3.01l-.07 1.1-.16 2.12c-1.4 12.66-.9 25.68-.41 38.27.23 6.12.48 12.46.5 18.67.01 1.8 0 3.53-.04 5.17v.07l-.03.06c-5.42 10.68-2.46 20.92.67 31.77.46 1.58.93 3.2 1.38 4.84 1.4 4.7.36 9.42-.64 14-.71 3.27-1.44 6.65-1.25 9.93l.07 5.56c.13 10.6.29 24.6.32 38.84l.01 5.92v.06c-1.3 6.97-2.2 15.23.9 23.62 1.05 3.52.3 6.91-.44 10.19-.54 2.44-1.1 4.97-.95 7.57l-.16 5.95c-1.03 35.12-3.43 66.15-7.32 94.87 0 .45-.03.97-.06 1.5-.12 1.66-.23 3.37.62 4.8.92 1.56 1.92 3.1 2.97 4.75 3.93 6.1 8 12.43 7.99 19.22 0 1.8-.3 3.56-.87 5.26-5.94 13.6-5.15 28.26-4.4 42.43.3 5.58.6 11.36.5 17 .06 1.76.21 3.61.36 5.4.4 2.04-.25 4.06-.89 6.02-.32 1-.63 1.95-.8 2.89l-.02 5.7c-.07 17.68-.1 29.27-.1 35.46Z"/><path fill="url(#M)" d="m619.3 546.36-.81-.02c.2-7.07.45-22.05.72-44.53.04-1.63.3-3.49.58-5.45l.04-.29c.17-1.22.28-2.47.32-3.81.04-1.19.04-2.43-.01-3.8-.34-5.44.05-10.94.44-16.27.77-10.8 1.5-20.98-3.18-31.17-1.74-4.4-.4-8.43 1-12.7.54-1.62 1.1-3.3 1.47-5 .1-2 .16-3.8.19-5.5.12-9.56.2-18.29.27-26.68.01-1.54.07-3.02.64-4.4 2.3-4.82 4.68-9.78 1.79-14.66a46.92 46.92 0 0 1-2.06-35.29l.04-5.46.2-27.85a76 76 0 0 1 .26-5.75l.04-.1c6.38-12.41 1.58-24.01-3.5-36.3l-.92-2.24c-1.27-3.22.61-5.93 2.44-8.55a21.02 21.02 0 0 0 2.17-3.58l.05-10.22c0-1.7.02-3.73.12-5.9-.02-4.83.3-9.71.6-14.44.7-10.68 1.43-21.73-1.85-32.8-1.92-7.57-.38-14.88 1.17-20.42.12-1.5.19-3.03.25-4.5.03-7.47.08-14.82.1-22.01 0-1.31 0-2.62.04-3.96-.18-4.54.33-9.14.8-13.58.6-5.54 1.24-11.26.58-17.04-.32-2.4-.82-4.86-1.3-7.24-1.32-6.52-2.68-13.26-.58-20.03.36-1.81.6-3.84.7-5.99.09-38.16.05-62.46-.1-72.21l.8-.01c.17 9.76.2 34.06.11 72.24a40.6 40.6 0 0 1-.7 6.12c-2.08 6.65-.72 13.32.58 19.77.48 2.4.98 4.86 1.3 7.29.66 5.85.03 11.6-.57 17.17-.48 4.42-.98 9-.8 13.5-.04 1.37-.04 2.67-.05 3.97l-.1 22.02c-.06 1.5-.12 3.04-.25 4.57l-.01.06c-1.54 5.46-3.07 12.68-1.18 20.12 3.3 11.16 2.58 22.27 1.87 33-.3 4.71-.63 9.59-.6 14.4-.1 2.18-.12 4.2-.12 5.9l-.08 10.4a21.4 21.4 0 0 1-2.26 3.75c-1.82 2.6-3.52 5.07-2.38 7.98l.92 2.24c5.13 12.4 9.97 24.1 3.51 36.73a70.92 70.92 0 0 0-.26 5.64l-.2 27.85-.05 5.6a46.33 46.33 0 0 0 2 34.88c3.03 5.12.6 10.24-1.77 15.18a11 11 0 0 0-.57 4.15c-.07 8.4-.16 17.13-.28 26.7-.02 1.7-.08 3.51-.19 5.53v.05a49.7 49.7 0 0 1-1.49 5.1c-1.37 4.15-2.67 8.08-1.01 12.27 4.72 10.31 3.96 21.06 3.22 31.44-.38 5.3-.77 10.79-.44 16.2.06 1.38.06 2.64.01 3.84a36.05 36.05 0 0 1-.33 3.88l-.04.29c-.27 1.94-.53 3.78-.57 5.38a3279.2 3279.2 0 0 1-.73 44.54Z"/><path fill="url(#N)" d="m393.44 546.47-.79-.18c2.76-9.08 4.5-35.03 5.15-77.12a94 94 0 0 1 .1-3.05c.5-8.17.3-16.26.1-24.1-.19-7.7-.38-15.67.1-23.63l-.01-3.65c-.31-104.14-4.61-247.88-8.74-344.14-.1-2.02-.17-4-.26-5.95-.13-1.8-.2-3.75-.25-5.64-.07-1.87-.13-3.8-.26-5.65l-.24-5.4c-1.24-26.57-2.32-44.8-3.04-51.32l.82-.06c.71 6.53 1.8 24.77 3.04 51.35l.25 5.4c.12 1.84.18 3.78.25 5.66.06 1.97.13 3.84.25 5.63l.26 5.95c4.13 96.27 8.43 240.02 8.74 344.16v3.67c-.47 7.95-.28 15.9-.08 23.6.2 7.84.4 15.95-.1 24.13-.06.98-.09 2-.1 3.03-.66 42.17-2.4 68.17-5.19 77.3Z"/><path fill="url(#O)" d="M726.2 546.38c-.47-5.13-.98-26.62-1.6-67.63a62.4 62.4 0 0 1 .01-3.5c.34-20.22-.31-40.84-.94-60.77-.68-21.83-1.4-44.42-.83-66.69.02-1.4 0-2.79 0-4.11-.92-71.13-1.69-120.18-2.45-128.4l-.8-8.59c-.23-2.37-.47-16.52-.66-38.8v-3.36c.47-3.5.47-7.04.47-10.47.55-6.3-.07-12.57-.66-18.63-.69-6.91-1.38-14.05-.34-21.15.15-1.53.2-2.98.23-4.32l-.01-8.35-.01-4.18c1.51-16.35 1.2-30.4-.99-44.28-.93-3.96-.4-7.58.16-11.42.14-1.02.3-2.07.43-3.14l.08-.62c.12-.88.24-1.8.49-2.66.2-23.4.55-36.43 1.04-38.74l.8.13c-.47 2.23-.82 15.6-1.02 38.66l-.01.08c-.25.83-.36 1.7-.49 2.61l-.08.62c-.13 1.06-.28 2.12-.43 3.14-.55 3.78-1.08 7.35-.16 11.23 2.2 13.93 2.51 28.04 1 44.41v4.16c.02 2.78.02 5.57.02 8.35a57.55 57.55 0 0 1-.23 4.4c-1.04 7.03-.34 14.14.33 21 .6 6.1 1.22 12.4.66 18.72 0 3.42 0 6.99-.46 10.5a121 121 0 0 0 0 3.3c.18 22.27.42 36.4.65 38.76l.8 8.59c.78 8.23 1.54 57.3 2.45 128.44.02 1.33.04 2.72.01 4.13-.57 22.26.15 44.84.83 66.67.63 19.94 1.28 40.56.95 60.8a61.43 61.43 0 0 0-.02 3.47c.62 41 1.13 62.48 1.61 67.6l-.82.04Z"/><path fill="url(#P)" d="M753.89 546.72c-.47-.05-.47-.05-.54-6.11-.04-3.53-.07-8.75-.1-15.51-.03-11.72-.04-28.38 0-49.53.05-37.7.2-80.29.26-98.48l.03-6.33c0-1.79.04-2.8.05-3.05 1.04-6.16.8-12.33.59-18.32-.19-5.02-.4-10.22.15-15.46 0-1.74.3-3.66.6-5.51.3-1.83.58-3.73.58-5.46v-.04c.92-5.4-.25-10.79-1.38-16-1.06-4.86-2.15-9.89-1.58-14.98.34-1.74.89-3.5 1.42-5.2.4-1.29.81-2.62 1.15-3.97.43-1.59.74-3.2.95-5.06.2-5.08.01-9.9-.56-14.69-1.94-16.09-1.32-32.45-.73-48.27.31-8.28.64-16.84.59-25.28 0-1.23.02-2.45.04-3.7l.02-3.63c.01-1.16.25-2.44.77-4.03l.2-.59c1.63-4.98 3.17-9.67 1.5-14.38-5.33-14.41-3.94-28.69-2.6-42.5l.47-4.86v-3.52c.2-54.9.18-95.96-.05-115.64h.81c.24 19.68.26 60.75.06 115.65l-.02 3.55c-.14 1.65-.3 3.27-.46 4.89-1.4 14.37-2.73 27.95 2.56 42.23 1.74 4.9.17 9.7-1.5 14.78l-.2.59a12.6 12.6 0 0 0-.72 3.85l-.03 3.63-.04 3.7c.05 8.43-.27 17-.58 25.28-.6 15.8-1.22 32.14.72 48.19.57 4.82.75 9.66.55 14.79a32.22 32.22 0 0 1-.97 5.18c-.33 1.34-.74 2.7-1.15 4a50.66 50.66 0 0 0-1.4 5.1c-.55 4.97.53 9.95 1.58 14.77 1.14 5.25 2.32 10.68 1.4 16.18 0 1.77-.3 3.67-.6 5.51a35.8 35.8 0 0 0-.58 5.46c-.54 5.22-.34 10.4-.15 15.4.23 6.02.47 12.23-.58 18.41-.01.2-.04 1.21-.05 2.99l-.03 6.33c-.48 137.87-.27 168.1 0 169.19l-.39.07.4.1-.46.28Z"/><path fill="url(#Q)" d="M790.96 546.7c-.48-.08-.65-.12-1.05-23.15-.04-1.8-.07-3.65.11-5.71 2.22-16.22-.31-33.31-2.55-48.4-.54-7.36-.13-14.79 1.3-23.4.01-1.18.02-2.57.06-3.96l-.09-7.63.01-.04c.4-1.68.92-3.37 1.42-5.02 1.6-5.28 3.24-10.74 1.47-16.38l-.38-1.38c-4.6-17.03-8.97-33.11-3.87-49.63l.04-.88c.07-1.43.13-2.93.25-4.39-.13-5.58-.33-11.3-.52-16.83-.6-17.07-1.23-34.73.1-51.88 0-1.06.02-2.12.04-3.16v-34.52c-.19-5.31.32-10.65.8-15.8.6-6.35 1.22-12.9.57-19.5-.31-3.13-.79-6.32-1.25-9.4-1.32-8.76-2.68-17.82-.4-26.95l.02-.51c.06-1.08.12-2.18.25-3.26V-3.38h.82v178.34c-.14 1.1-.2 2.19-.25 3.25l-.05.6c-2.26 9.01-.9 18.03.4 26.74.47 3.1.95 6.29 1.26 9.44.66 6.65.03 13.23-.57 19.6-.48 5.14-.98 10.46-.8 15.75v34.53l-.04 3.15v.04c-1.31 17.13-.7 34.77-.1 51.82.2 5.53.4 11.25.53 16.87-.12 1.49-.19 2.97-.25 4.4l-.06 1c-5.07 16.36-.73 32.37 3.87 49.33l.37 1.37c1.83 5.8.16 11.35-1.47 16.72-.5 1.63-1 3.3-1.4 4.95l.09 7.58c-.04 1.4-.05 2.77-.06 4-1.42 8.61-1.84 16-1.3 23.29 2.24 15.1 4.77 32.25 2.55 48.53-.18 2.02-.14 3.86-.12 5.63.25 14.47.48 22.1.68 22.7a.38.38 0 0 0-.32-.2l-.03.32.38.16-.46.18Z"/><path fill="url(#R)" d="m820.4 546.36-.82-.02c.23-7.7.5-24.01.82-49.88l.06-5.68c.14-2.92.6-5.59 1.1-8.4l.26-1.51c0-5.22-.48-10.44-.93-15.5-.8-8.96-1.63-18.21.14-27.54l.03-3.66c.18-18.55.37-38.56.55-59.47l.07-.6c.11-1.07.23-2.18.62-3.15a18.49 18.49 0 0 0 1.88-11.45l-.39-1.3c-2.78-9.36-5.4-18.2-2.54-28.02.4-1.45.65-2.86.8-4.58l.17-21c.05-1.2.1-2.7.61-3.95l.03-.06c4.27-6.46 2-12.92-.38-19.77-.94-2.7-1.92-5.5-2.43-8.26-.64-6.54.82-12.33 2.51-17.62l.03-.88c.02-1.09.05-2.18.1-3.27.2-24.72.42-49.22.62-72.74l.04-3.15c-.45-2.87.17-5.68.76-8.4.63-2.88 1.28-5.84.68-8.87-1.69-9-3.03-18.69-1.49-28.69.18-.89.29-1.75.4-2.58l.1-.71c.33-35.44.61-62.72.87-83.38l.1-8.55c.02-4.75.05-9.24.2-13.93l.07-3.9c.14-8.8.28-15.28.4-19.25l.81.02c-.12 3.97-.26 10.44-.4 19.24l-.07 3.9a525.2 525.2 0 0 0-.2 13.92l-.03 3.6-.06 4.97c-.26 20.65-.55 47.94-.88 83.4l-.1.76c-.12.84-.23 1.7-.4 2.6-1.53 9.9-.19 19.53 1.48 28.47.62 3.15-.04 6.17-.68 9.1-.61 2.8-1.2 5.46-.75 8.22v.06l-.03 3.17c-.22 23.5-.42 48.02-.63 72.74l-.1 3.27-.04 1c-1.68 5.26-3.14 11-2.5 17.41.5 2.7 1.47 5.47 2.4 8.15 2.33 6.67 4.74 13.57.34 20.28-.42 1.06-.5 2.26-.56 3.72l-.17 21a24 24 0 0 1-.82 4.72c-2.82 9.67-.22 18.42 2.54 27.68l.4 1.35c.63 4.19-.05 8.27-1.93 11.83-.35.87-.46 1.93-.57 2.96l-.06.58-.55 59.44-.04 3.74c-1.76 9.26-.94 18.48-.13 27.4.45 5.09.93 10.34.93 15.58l-.01.05-.26 1.53a66.2 66.2 0 0 0-1.08 8.32l-.07 5.69c-.32 25.83-.6 42.15-.83 49.85Z"/><path fill="url(#S)" d="M845.8 546.36c-.2-12.4.03-45.61.7-98.72l.05-3.76c.05-1.24.39-2.58.7-3.87.47-1.88.96-3.82.62-5.55l-.01-.05c0-2.65-.48-5.26-.94-7.77-.58-3.14-1.17-6.39-.84-9.75l.1-1.96c.56-12.43 1.1-24.18 1.29-36.7.02-.53.05-1.05.06-1.58.03-.8.07-1.63.12-2.44l.03-.12c3.99-8.3 2.09-16.35.09-24.88-1.02-4.3-2.06-8.75-2.27-13.2-.6-2.56 0-5.15 1.67-7.12.63-1.32.99-2.45 1.12-3.55l.33-20.9c.06-1.36.19-2.85.71-4.52l.02-.06c4.2-7.38 1.97-14.65-.41-22.35-1.4-4.56-2.86-9.27-2.86-14.02 0-1.88.87-3.5 1.78-5.23a19.6 19.6 0 0 0 1.51-3.37l.04-1.27.1-2.78.86-50.55a80 80 0 0 1 .34-6.16c.2-1.72.4-3.42.58-5.1l.02-.07c.45-1.29.85-2.77 1.24-4.2.22-.8.43-1.56.64-2.26 0-4.87-.65-9.72-1.29-14.42-.85-6.38-1.74-12.98-1.02-19.7-.13-1.57-.3-3.23-.5-5.07-.38-3.27-.82-6.7-1.33-10.2-.52-3.08.72-5.73 2.03-8.53l.61-1.32c.09-1.83.15-3.65.18-5.4l.78-41.02c.04-2.03.08-4.1.2-6.1l.24-2.02c2.07-17.09 4.01-33.23-1.66-50-1.8-6.1.02-12.23 2.25-17.95.62-1.55.66-2.92.7-4.13h.4l.41.02a11.8 11.8 0 0 1-.73 4.32c-2.2 5.62-4 11.65-2.25 17.56 5.71 16.88 3.76 33.1 1.69 50.25l-.25 2c-.11 1.95-.15 4.04-.2 6.05l-.78 41.03c-.03 1.78-.1 3.61-.18 5.48l-.03.1c-.2.47-.42.93-.63 1.39-1.27 2.71-2.48 5.27-1.98 8.18.5 3.52.95 6.95 1.33 10.23.2 1.86.38 3.53.51 5.11v.06c-.7 6.67.17 13.24 1.03 19.6.63 4.72 1.28 9.61 1.28 14.53l-.01.08c-.22.72-.43 1.5-.65 2.3-.39 1.42-.79 2.9-1.24 4.2-.19 1.67-.38 3.36-.59 5.08-.18 1.94-.3 4-.33 6.1-.3 16.58-.59 33.52-.87 50.56l-.1 2.78-.05 1.38c-.37 1.25-.98 2.4-1.57 3.52-.88 1.65-1.7 3.22-1.7 4.95 0 4.66 1.44 9.33 2.83 13.85 2.3 7.47 4.68 15.18.38 22.78a16.7 16.7 0 0 0-.68 4.34l-.33 20.92a11.88 11.88 0 0 1-1.2 3.81l-.05.07a7.44 7.44 0 0 0-1.55 6.63v.06c.2 4.41 1.25 8.85 2.26 13.13 1.94 8.23 3.95 16.73-.1 25.22-.05.8-.08 1.6-.11 2.38l-.07 1.58a1115.7 1115.7 0 0 1-1.3 36.7l-.08 1.98c-.33 3.29.26 6.5.83 9.6.46 2.53.94 5.15.94 7.85.36 1.84-.13 3.84-.62 5.78-.32 1.32-.63 2.56-.68 3.74l-.05 3.76c-.67 53.1-.9 86.3-.7 98.7l-.81-.02Z"/><path fill="url(#T)" d="M656 546.36h-.82c.07-25.22-.77-112.17-1.61-193.9v-.13c-.01-1.31-.03-2.62-.02-4.1a55 55 0 0 0-.1-7.68l-.04-4.03c-.02-1.47-.04-2.96-.04-4.58a55.2 55.2 0 0 1-.1-8.75l-.34-32.56v-2.75c.38-2.93.1-5.8-.17-8.57-.27-2.72-.53-5.3-.2-7.9a72 72 0 0 1-.1-4.03c.01-1.44.07-2.75.19-3.98l-.04-4.03c-1.13-108.54-2.41-231.55-2.33-262.65h.81c-.09 31.1 1.2 154.1 2.33 262.64l.04 4.06a46.36 46.36 0 0 0-.19 3.96c0 1.2.03 2.51.1 4.04v.05c-.32 2.54-.07 5.1.2 7.8.27 2.8.56 5.7.17 8.66 0 .86 0 1.78.02 2.7v1.2l.33 31.38c-.2 3.02-.16 5.94.1 8.7 0 1.65.02 3.14.04 4.6l.04 4.01c.21 2.14.24 5.04.1 7.72l.02 4.09v.12c.83 81.73 1.68 168.69 1.6 193.9Z"/><path fill="url(#U)" d="M879.4 546.38h-.8c0-6.2.03-17.78.12-35.43l.03-5.79c.17-.99.5-2 .82-3 .61-1.88 1.24-3.83.86-5.73v-.06c-.15-1.79-.3-3.65-.36-5.44.1-5.64-.2-11.4-.5-16.98-.76-14.24-1.55-28.96 4.44-42.67.54-1.61.83-3.32.83-5.04 0-6.62-4-12.86-7.9-18.9-1-1.57-2.05-3.2-2.98-4.77-.95-1.6-.83-3.48-.71-5.14.03-.53.07-1.03.07-1.5 3.88-28.75 6.28-59.76 7.3-94.86.07-1.97.12-3.94.17-5.92-.16-2.66.42-5.23.97-7.71.75-3.35 1.45-6.52.46-9.88-3.15-8.5-2.24-16.85-.94-23.89v-5.9c-.04-14.23-.2-28.23-.32-38.83l-.08-5.54c-.2-3.35.55-6.77 1.27-10.08.98-4.5 2-9.15.64-13.71-.44-1.64-.92-3.27-1.37-4.85-3.17-10.94-6.15-21.27-.67-32.13.03-1.62.04-3.33.03-5.09-.02-6.2-.26-12.54-.5-18.66-.49-12.6-1-25.64.41-38.34l.16-2.1.07-1.1c.05-1.13.12-2.13.19-3.06 1.7-8.47.9-16.8.12-24.87-.53-5.49-1.07-11.16-.83-16.83.6-5.62 1.18-11.53 1.06-16.83.03-1.65.05-3.28.05-4.8l.03-14.35h.81c0 3.3 0 8.16-.03 14.35 0 1.52-.01 3.16-.05 4.8.13 5.31-.44 11.25-1.05 16.87-.24 5.6.3 11.26.82 16.74.78 8.1 1.58 16.48-.12 25a77 77 0 0 0-.18 3.01l-.08 1.1-.15 2.12c-1.4 12.66-.9 25.68-.42 38.27a523 523 0 0 1 .5 18.67c.02 1.8 0 3.53-.03 5.17v.07l-.04.06c-5.41 10.68-2.45 20.92.68 31.77.46 1.58.93 3.2 1.38 4.84 1.39 4.7.35 9.42-.64 14-.72 3.27-1.45 6.65-1.25 9.93l.07 5.56a3912.66 3912.66 0 0 1 .33 44.76l-.01.06c-1.3 6.97-2.2 15.23.9 23.62 1.05 3.52.3 6.91-.43 10.19-.54 2.44-1.1 4.97-.95 7.57-.05 2-.1 3.98-.17 5.95-1.03 35.12-3.42 66.15-7.31 94.87 0 .45-.03.97-.07 1.5-.11 1.66-.22 3.37.62 4.8.93 1.56 1.92 3.1 2.97 4.75 3.93 6.1 8 12.43 8 19.22 0 1.8-.3 3.56-.88 5.26-5.93 13.6-5.15 28.26-4.4 42.43.3 5.58.6 11.36.5 17 .07 1.76.22 3.61.36 5.4.4 2.04-.25 4.06-.88 6.02a23 23 0 0 0-.8 2.89l-.03 5.7c-.06 17.68-.1 29.27-.1 35.46Z"/><path fill="url(#V)" d="m913.74 546.36-.82-.02c.21-7.07.46-22.05.73-44.53.04-1.63.3-3.49.57-5.45l.04-.29c.17-1.22.29-2.47.33-3.81a54 54 0 0 0-.02-3.8c-.33-5.44.06-10.94.44-16.27.78-10.8 1.5-20.98-3.17-31.17-1.74-4.4-.4-8.43 1-12.7.54-1.62 1.09-3.3 1.46-5 .11-2 .17-3.8.2-5.5.11-9.56.2-18.29.27-26.68 0-1.54.06-3.02.63-4.4 2.3-4.82 4.68-9.78 1.8-14.66a46.92 46.92 0 0 1-2.07-35.29l.05-5.46.2-27.85c0-1.86.1-3.79.26-5.75l.03-.1c6.38-12.41 1.58-24.01-3.5-36.3l-.92-2.24c-1.27-3.22.62-5.93 2.44-8.55a21.02 21.02 0 0 0 2.18-3.58l.05-10.22c0-1.7.02-3.73.12-5.9-.03-4.83.3-9.71.6-14.44.7-10.68 1.43-21.73-1.86-32.8-1.92-7.57-.38-14.88 1.18-20.42.12-1.5.18-3.03.25-4.5l.1-22.01c0-1.31 0-2.62.04-3.96-.18-4.54.32-9.14.8-13.58.6-5.54 1.23-11.26.57-17.04-.32-2.4-.81-4.86-1.3-7.24-1.31-6.52-2.68-13.26-.57-20.03.36-1.81.6-3.84.7-5.99.08-38.16.05-62.46-.11-72.21l.81-.01c.16 9.76.2 34.06.1 72.24-.1 2.19-.33 4.25-.7 6.12-2.07 6.65-.72 13.32.58 19.77.49 2.4.99 4.86 1.3 7.29.67 5.85.04 11.6-.56 17.17-.48 4.42-.98 9-.8 13.5-.04 1.37-.04 2.67-.05 3.97l-.1 22.02c-.06 1.5-.13 3.04-.26 4.57v.06c-1.54 5.46-3.07 12.68-1.19 20.12 3.3 11.16 2.58 22.27 1.88 33-.31 4.71-.63 9.59-.6 14.4-.1 2.18-.12 4.2-.13 5.9l-.07 10.4a21.33 21.33 0 0 1-2.26 3.75c-1.82 2.6-3.53 5.07-2.38 7.98l.92 2.24c5.13 12.4 9.97 24.1 3.5 36.73a71.4 71.4 0 0 0-.25 5.64l-.2 27.85-.06 5.6a46.33 46.33 0 0 0 2 34.88c3.04 5.12.6 10.24-1.76 15.18a11.02 11.02 0 0 0-.58 4.15c-.06 8.4-.15 17.13-.27 26.7a149 149 0 0 1-.2 5.53v.05a49.7 49.7 0 0 1-1.48 5.1c-1.38 4.15-2.67 8.08-1.02 12.27 4.73 10.31 3.97 21.06 3.23 31.44-.39 5.3-.78 10.79-.45 16.2.06 1.38.06 2.64.02 3.84a36.04 36.04 0 0 1-.33 3.88l-.04.29c-.27 1.94-.53 3.78-.57 5.38-.29 22.48-.52 37.47-.74 44.54Z"/><path fill="url(#W)" d="m687.88 546.47-.8-.18c2.77-9.08 4.5-35.03 5.16-77.12.02-1.03.05-2.06.1-3.05.5-8.17.3-16.26.1-24.1-.2-7.7-.39-15.67.1-23.63l-.01-3.65c-.31-104.14-4.62-247.88-8.75-344.14l-.25-5.95c-.14-1.8-.2-3.75-.26-5.64-.06-1.87-.12-3.8-.25-5.65l-.24-5.4c-1.25-26.57-2.32-44.8-3.04-51.32l.81-.06c.72 6.53 1.8 24.77 3.05 51.35l.24 5.4c.12 1.84.19 3.78.25 5.66.07 1.97.13 3.84.26 5.63l.26 5.95c4.12 96.27 8.43 240.02 8.74 344.16v3.67c-.48 7.95-.28 15.9-.08 23.6.2 7.84.4 15.95-.11 24.13-.05.98-.08 2-.1 3.03-.66 42.17-2.4 68.17-5.18 77.3Z"/></g><mask id="X" width="978" height="517" x="0" y="515" maskUnits="userSpaceOnUse" style="mask-type:alpha"><path fill="#F7F7F7" d="M.44 1031.55H977V515.77H.44z"/></mask><g mask="url(#X)"><path fill="url(#Y)" d="M977 1007.64H1.58v-.69H977v.69Z"/><path fill="url(#Z)" d="M106.05 975.76a35 35 0 0 0-12.57 2.19c-3.42.9-6.28 1.6-9.42 1.66H1.56v.68h82.51c3.41-.05 6.54-.81 9.98-1.74l.09-.02c5.5-2.21 13.27-2.72 19.31-1.26l5.26 1.1c18.45 3.86 37.52 7.87 55.99 2.08 2.25-.07 4.56-.11 6.79-.16h91.24c3.33 0 6.58-.04 9.7-.57 11.21-2.59 22.96-4.82 33.14-1.47 14.25 4.46 34.9 8.43 52.4 2.03 2.7-.73 5.26-.82 7.45-.85 9.7-.13 19.76.48 30.77 1.86 7.08.6 14.15.11 20.99-.36 4.41-.31 8.99-.63 13.4-.63H977v-.7H440.59c-4.49 0-9.1.33-13.56.64-6.76.47-13.75.96-20.6.36a224.7 224.7 0 0 0-31.04-1.87c-2.3.03-5.03.13-8 .95-17.08 6.23-37.27 2.33-51.21-2.04-10.65-3.5-22.71-1.22-34.16 1.42-2.91.5-6.06.54-9.29.54h-91.29c-2.27.04-4.63.08-6.94.16h-.14l-.13.05c-18.01 5.7-36.85 1.74-55.08-2.1l-5.23-1.09a34.49 34.49 0 0 0-7.87-.86Z"/><path fill="url(#aa)" d="M375.78 950.02c-7.57 0-15.27.55-23.03 1.9-2.76.12-5.48.13-7.83.13-4.88.03-9.88-.03-14.72-.1-7.22-.09-14.7-.18-21.91.03-2.72.06-5.14.07-7.58.07-1.74 0-3.6.04-5.67.13-11.83.82-24.28.36-36.32-.08-9.22-.34-18.76-.69-28-.48-1.19 0-2.43-.04-3.64-.07-3.23-.1-6.56-.2-10.12.37-2.69.08-5.66.12-9.38.13H160c-1.9.03-3.87.05-5.6.13-7.81.44-15.98.13-23.88-.18-9.1-.35-18.5-.7-27.57.05H1.57v.69H103.1c8.94-.76 18.3-.4 27.34-.06 7.95.3 16.17.63 24.07.18 1.69-.08 3.63-.1 5.52-.11l.88-.01h46.68c3.78-.01 6.8-.06 9.51-.13l.14-.02c3.39-.55 6.63-.45 9.78-.35 1.22.04 2.49.07 3.73.07 9.2-.21 18.7.13 27.9.48 12.1.44 24.6.9 36.51.08 2.02-.09 3.85-.13 5.56-.13 2.45 0 4.89 0 7.63-.07a529 529 0 0 1 21.82-.03c4.85.06 9.86.13 14.76.1 2.38 0 5.15 0 7.98-.13l.14-.02c20.17-3.55 40.07-1.69 63.75 2.2 6.47 1.22 13 .18 19.3-.81 1.67-.26 3.39-.54 5.07-.77 1.9-.24 4-.33 6.04-.4l1.53-.07h528.27v-.69H448.69l-1.57.07a70.3 70.3 0 0 0-6.22.43c-1.72.23-3.45.5-5.12.77-6.42 1.01-12.49 1.97-18.6.82-12.7-2.09-26.78-4.12-41.4-4.12Z"/><path fill="url(#ab)" d="M231.7 923.53c-5.27 0-10.44.28-15.49.55-4.97.27-10.12.55-15.26.55h-.04l-1.75.02-4.8.05H1.57v.69h192.82l4.8-.06 1.74-.02h.04c5.2 0 10.36-.28 15.36-.55 6.65-.35 13.54-.73 20.59-.44 7.4 0 14.9.66 22.15 1.31 12.8 1.14 26.05 2.32 39.08-.1 1.98-.1 4.22-.14 7.06-.14h208.45l8.02-.03c10.24-.74 20.84-.3 31.08.11 11.05.45 22.49.92 33.5-.07l7.97-.01H977v-.69H594.23l-8.13.01c-10.88.99-22.25.53-33.25.07-10.3-.42-20.96-.86-31.26-.1-2.6 0-5.27 0-7.94.02H305.22c-2.9 0-5.21.05-7.23.15h-.14c-12.78 2.39-25.9 1.23-38.58.1-7.3-.65-14.85-1.32-22.3-1.32-1.77-.06-3.52-.1-5.26-.1Z"/><path fill="url(#ac)" d="M529.4 895.53c-7.83 0-15.77.54-23.94 1.84H1.56v.68h504.07l.08-.01c23.4-3.76 45.12-1.07 67.17 2.28 6.76 1.27 12.84.17 18.73-.9 3.6-.65 7.03-1.27 10.6-1.37H977v-.7H602.18c-3.76.12-7.4.78-10.94 1.42-5.7 1.03-11.58 2.09-18 .88-14.56-2.2-28.98-4.12-43.84-4.12Z"/><path fill="url(#ad)" d="M976.76 870.58H1.32v-.69h975.44v.69Z"/><path fill="url(#ae)" d="M363.77 839.67c-2.42 0-4.45.45-6.6.92-1.17.25-2.37.51-3.74.73-2.2.46-4.54.75-6.94.86H1.57v.7h344.96c2.58-.13 5-.43 7.28-.9 1.38-.22 2.6-.5 3.78-.75 2.14-.47 3.98-.87 6.17-.87 8.71 0 17.6 1.18 26.2 2.31 14.1 1.87 28.66 3.8 43.03.66 2.17-.21 4.28-.3 6.33-.38.65-.02 1.3-.04 1.93-.08h535.76v-.69H441.2l-1.97.09c-2.1.08-4.26.17-6.5.38l-.13.02c-14.03 3.07-28.43 1.17-42.37-.67-8.66-1.14-17.62-2.33-26.47-2.33Z"/><path fill="url(#af)" d="M483.8 811.84c-6.34 0-12.69.72-19 2.66-2.66.09-5.32.14-8.03.19h-15.82c-2.6 0-5.29 0-7.9.09-3.74-.04-7.51.36-11.16.76-4.42.47-8.6.92-12.83.66-21.4-2.51-41.02-3-61.73-1.5H1.57v.68H347.4a317.94 317.94 0 0 1 61.46 1.5c4.49.28 8.95-.2 13.26-.66 3.59-.39 7.3-.79 10.96-.75 2.62-.09 5.3-.09 7.87-.09h15.84c2.78-.04 5.48-.1 8.22-.19h.14l.12-.05c15.22-4.73 30.88-2.08 46.01.49 4.79.8 9.74 1.65 14.63 2.24 10.2 1.57 20.7-.7 28.38-2.36l1.18-.02c2.25-.02 4.5-.06 6.75-.1H977v-.7H562.2l-6.74.12-1.5.04c-9.77 2.12-18.6 3.77-27.75 2.36-4.87-.6-9.8-1.43-14.56-2.23-9.16-1.57-18.5-3.14-27.86-3.14Z"/><path fill="url(#ag)" d="M976.07 787.95H.63v-.69h975.44v.7Z"/><path fill="url(#ah)" d="M234.27 759.74c-5.53 0-11.06.02-16.46.05-2.17.02-4.42.02-6.68.02H.43v.69h210.7c2.27 0 4.53 0 6.7-.02 11.68-.08 23.95-.08 35.5.02h722.55v-.69H253.33c-6.21-.05-12.63-.07-19.06-.07Z"/><path fill="url(#ai)" d="M210 730c-6.77 0-13.4.86-19.72 1.88-2.47.37-4.9.46-7.24.56l-.8.03H.44v.7h181.85l.84-.04c2.4-.1 4.88-.2 7.48-.6 9.32-1.5 19.33-2.67 29.34-1.13 3.27.44 6.56.94 9.75 1.43 15.14 2.32 30.8 4.71 45.8.52 2.23-.19 4.56-.2 6.82-.22h.46c14.93-1.53 29.82-.6 44.22.28 15.77.97 32.07 1.98 48.34-.25l156.8-.02c15.98-3.16 30.54-1.46 45.96.35 2.64.3 5.38.63 8.13.92 9.95 1.29 20.79.9 34.06-1.25h355.58v-.68H620.05c-13.11 2.13-23.77 2.53-33.56 1.26-2.76-.3-5.5-.62-8.14-.93-15.55-1.81-30.24-3.53-46.51-.33h-156.7c-16.1 2.21-32.32 1.2-48 .24-14.47-.9-29.43-1.81-44.52-.28h-.31c-2.34.01-4.75.03-7.08.23l-.18.03c-14.62 4.12-29.39 1.86-45.02-.53-3.2-.5-6.51-1-9.77-1.43a68.53 68.53 0 0 0-10.27-.75Z"/><path fill="url(#aj)" d="M561.13 704.05c-8.86 0-17.14.5-24.91 1.09H359.47c-2.74 0-5.3.03-7.61.1-9.1.23-18.66.04-27.9-.14-11.16-.22-22.7-.45-33.84.04H.44v.69h289.73c11.12-.5 22.62-.26 33.75-.05 9.27.18 18.85.38 28 .14 2.29-.06 4.84-.09 7.55-.1H536.3c10.46-.78 21.74-1.42 34.04-.89 3.13.24 6.36.57 9.47.88 10 1.02 20.34 2.08 30.42.3 1.75-.18 3.88-.23 5.93-.27l.58-.01h359.14v-.7H616.7l-.6.02c-2.1.05-4.27.1-6.19.3-9.85 1.73-20.04.7-29.9-.31a360.6 360.6 0 0 0-9.56-.89c-3.18-.14-6.29-.2-9.33-.2Z"/><path fill="url(#ak)" d="M479.17 675.3c-7.53 0-14.98.49-22.62 1.68-2.54.08-5.25.09-7.87.1H1.57v.68h447.11c2.67 0 5.42-.01 8-.1h.13c19.96-3.12 38.7-1.36 61.12 1.28 8.94 1.08 17.56.35 25.88-.35 3.37-.28 6.84-.57 10.31-.74l1.76-.01 6.33-.07h414.8v-.69H562.2l-6.34.07-1.8.02c-3.54.17-7.04.47-10.42.75-8.6.72-16.73 1.4-25.45.35-14.04-1.66-26.65-2.96-39.03-2.96Z"/><path fill="url(#al)" d="M235.47 646.08c-6.12 0-12.32.9-18.77 3.33l-1.5.02-5.25.09H1.56v.69h208.4c1.75-.04 3.5-.06 5.26-.09l1.85-.02.15-.06c14.9-5.67 28.6-2.83 43.1.18 4.7.98 9.6 1.99 14.6 2.73 8.3 1.27 17.92.61 30.26-2.08 2.34-.43 4.6-.53 6.99-.64l.65-.02h103.55a192 192 0 0 0 8.1-.19c17.7-.73 35.64-.23 52.98.25 19.72.55 40.1 1.13 60.6-.07H977v-.69H537.99c-20.46 1.2-40.8.63-60.47.08-17.39-.5-35.35-1-53.13-.26-2.91.13-5.53.18-8.01.18h-103.6l-.7.03c-2.36.1-4.8.21-7.3.67-12.12 2.64-21.5 3.3-29.53 2.06-4.96-.72-9.8-1.73-14.5-2.7-8.55-1.77-16.84-3.5-25.28-3.5Z"/><path fill="url(#am)" d="M381.34 619.7c-5.02 0-9.52.72-13.9 1.42a149 149 0 0 1-6.98 1l-2.54.02-5.2.04H1.58v.69h351.17l5.2-.04 2.7-.03c2.42-.26 4.82-.65 7.14-1.01 5.07-.81 10.31-1.64 16.29-1.31 3.16.42 6.37.9 9.48 1.36 15.24 2.25 31 4.58 46.35 1.79a88 88 0 0 1 8.85-.76h528.27v-.69H448.69c-2.82.13-5.8.3-9.13.79-15.04 2.74-30.63.43-45.7-1.8-3.13-.46-6.37-.94-9.55-1.37h-.08c-.99-.07-1.94-.1-2.89-.1Z"/><path fill="url(#an)" d="M384.57 593.87c-4.6 0-9.22.23-13.82.86-2.52.06-4.95.09-7.24.1h-41.83l-2.61.06c-1.83.03-3.72.07-5.65.13-9.63.86-19.34.35-28.74-.15-9.9-.53-20.12-1.08-30.28-.04H1.57v.69h253c10.01-1.04 20.17-.5 30 .03 9.47.5 19.26 1.03 28.98.16 1.86-.07 3.74-.1 5.56-.14l2.6-.06h41.8c2.33-.02 4.8-.04 7.36-.1h.11c11.05-1.52 22.34-.7 33.25.1 6.5.48 13.2.97 19.83.97.8 0 1.64.03 2.54.06 3 .09 6.38.2 9.41-.68 1.6-.2 3.52-.26 5.37-.31l1-.03H977v-.69H442.35l-1.02.03c-1.93.05-3.93.12-5.65.34l-.15.03c-2.75.8-6 .7-8.86.61-.91-.02-1.77-.05-2.6-.05-6.55 0-13.22-.5-19.67-.96-6.51-.47-13.15-.96-19.83-.96Z"/><path fill="url(#ao)" d="M604.78 564.88a70 70 0 0 0-7.91.44c-14.04 1.82-27.89 1.78-41.28 1.76-8.47-.02-17.22-.05-25.75.42h-8.05c-14.97.73-30.06.43-44.65.13-11.5-.23-23.4-.46-35.02-.19h-.65l-7.13.05H332.1l-.66.03c-2.23.1-4.53.2-6.7.46l-1.52.26c-10.4 1.78-20.21 3.45-30.18 1.58-26.35-4.4-47.37-6.35-70.7-2.46-2.2.13-4.47.13-6.66.13H1.57v.69h214.09c2.25 0 4.57 0 6.84-.13l.1-.01c23.08-3.85 43.91-1.92 70.05 2.45 10.32 1.94 20.79.15 30.9-1.58l1.48-.25c2.04-.25 4.3-.35 6.49-.45l.61-.03h102.22l7.14-.04.67-.01c11.59-.28 23.46-.04 34.93.2 14.63.29 29.76.59 44.75-.15h8.05a460.3 460.3 0 0 1 25.69-.42c13.47.04 27.39.07 41.54-1.77 11.2-1.27 20.53.5 30.41 2.36 5.48 1.03 11.15 2.1 17.25 2.64 8.07.65 15.49-.38 22.66-1.37 4-.56 8.16-1.13 12.38-1.4l5.75-.04H977v-.7H687.28l-1.72.02-5.82.03c-4.36.28-8.55.86-12.6 1.42-7.39 1.02-14.36 1.98-22.18 1.36-6-.54-11.6-1.59-17.04-2.61-7.65-1.45-14.99-2.82-23.14-2.82Z"/><path fill="url(#ap)" d="M589.03 537.31c-4.28 0-8.38.65-12.38 1.28-4.51.72-9.17 1.45-14.02 1.23H529.9l-2.83.02-5.22.02c-36.58 2.46-73.52.43-109.23-1.54-9.83-.79-18.93-.04-28.56.76-2.51.2-5.12.42-7.7.6-2.85.13-5.7.14-7.85.14H1.57v.69h366.92c2.18 0 5.06-.01 7.97-.14 2.64-.19 5.24-.4 7.76-.6 9.54-.8 18.56-1.54 28.23-.76 35.81 1.97 72.81 4 109.46 1.53 1.67 0 3.41 0 5.16-.02l2.83-.01h32.7c5 .22 9.77-.53 14.38-1.26 6.03-.95 11.74-1.85 18.06-.75 22.22 3.12 42.3 5.43 63.41 2.01h318.56v-.69H658.27l-.08.02c-20.84 3.4-40.79 1.1-62.83-2a36.5 36.5 0 0 0-6.33-.53Z"/><path fill="url(#aq)" d="M597.22 511.38c-3.3 0-6.57.12-9.8.45l-1.06.07c-2.9.2-5.64.39-8.13.44H1.57v.69h576.69c2.56-.05 5.32-.24 8.25-.45l1.1-.07c9.34-.92 19.14-.2 28.62.5 10.91.8 22.2 1.62 33.12.04h2.24l5.31-.02H977v-.69H656.9l-5.32.02-2.47.02c-10.71 1.57-21.9.74-32.73-.05-6.31-.48-12.77-.95-19.16-.95Z"/><path fill="url(#ar)" d="M34.33 1034.93h-.81V485.19h.81v549.74Z"/><path fill="url(#as)" d="M66.86 485.2h-1.09v467.24c-.14 2.1.3 4.14.72 6.1.6 2.8 1.17 5.46.16 8.29-1.94 8.18-2.92 14.96-1.43 21.59.45 2.38.53 4.27.55 5.8v40.71h1.1v-40.72c-.03-1.57-.1-3.5-.57-5.95-1.47-6.5-.5-13.17 1.4-21.2 1.07-3 .45-5.89-.14-8.67-.4-1.92-.83-3.9-.7-5.92V485.2Z"/><path fill="url(#at)" d="M98.44 485.2v35.88l.08.1c5.44 8.14 2.56 16.31-.22 24.23-.65 1.85-1.32 3.75-1.88 5.64-1.97 5.55-1.63 11.5.96 16.3.58 1.5.93 2.69 1.06 3.76v463.82h1.1v-463.9a16.9 16.9 0 0 0-1.13-3.98l-.02-.05c-2.45-4.55-2.8-10.42-.91-15.71.56-1.89 1.22-3.79 1.87-5.63 2.83-8.06 5.77-16.4.2-24.83v-35.64h-1.1Z"/><path fill="url(#au)" d="M132 485.2h-.8v233.77c.04 1.64.13 2.99.28 4.13.8 4.55.28 9.3-.22 13.9-.5 4.48-1 9.13-.29 13.6.13 1.45.16 2.82.2 4.15l.01.74v279.44h.82V755.48l-.02-.74a72 72 0 0 0-.2-4.21c-.7-4.41-.2-9.01.3-13.47.5-4.63 1.02-9.43.21-14.05a43.6 43.6 0 0 1-.28-4.05V485.2Z"/><path fill="url(#av)" d="M946.1 485.2h-.82v233.77c.05 1.64.14 2.99.28 4.13.8 4.55.29 9.3-.22 13.9-.5 4.48-1 9.13-.28 13.6.12 1.45.15 2.82.2 4.15l.01.74v279.44h.81V755.48l-.01-.74a71.13 71.13 0 0 0-.2-4.21c-.7-4.41-.2-9.01.29-13.47.51-4.63 1.03-9.43.22-14.05a43.2 43.2 0 0 1-.29-4.05V485.2Z"/><path fill="url(#aw)" d="M163.74 485.2h-.82v52.69c0 1.28.08 2.54.26 3.73 1.45 8.95.37 17.39-.76 26.32-.32 2.5-.65 5.1-.91 7.67 0 3 .42 6.66 1.3 11.23.08 1.02.12 2.11.12 3.32v13.78l.49 4.95c1.44 14.32 2.8 27.83-2.5 42.12-1.5 5.11-1.1 11.02 1.25 18.62.34 1.67.62 3.22.75 4.7v35.79l.01.02c.3 1.75.75 3.53 1.19 5.25.95 3.74 1.93 7.6 1.53 11.67a71.75 71.75 0 0 1-2.6 9.9c-2.4 7.65-4.68 14.88-.93 22.35.7 1.78.75 3.82.81 5.79v145.68l.03.06c.3.77.5 1.54.68 2.29l.3 1.17c2.2 4.84 2.58 8.94 1.14 12.57-3.62 11.2-6.52 22.15-2.39 32.96.24 2.09.24 4.17.24 5.83v69.27h.81v-69.28c0-1.69 0-3.8-.24-5.93l-.02-.08c-4.08-10.63-1.2-21.48 2.38-32.57 1.49-3.78 1.12-8.03-1.15-12.99l-.27-1.1c-.2-.75-.38-1.52-.69-2.32V765.08c-.05-2.03-.1-4.12-.85-6.03-3.66-7.28-1.42-14.4.94-21.93a71.72 71.72 0 0 0 2.62-10c.42-4.18-.58-8.1-1.54-11.88-.43-1.7-.88-3.46-1.17-5.17v-35.75c-.14-1.54-.44-3.1-.78-4.83-2.33-7.52-2.73-13.32-1.26-18.29 5.33-14.4 3.96-27.98 2.51-42.36-.16-1.63-.33-3.27-.48-4.93v-13.74c0-1.22-.04-2.34-.14-3.4a60.86 60.86 0 0 1-1.29-11.12c.26-2.54.6-5.12.91-7.63 1.14-8.98 2.22-17.45.76-26.49a26.33 26.33 0 0 1-.24-3.64v-52.7Z"/><path fill="url(#ax)" d="M196.85 485.2h-.81v57.44c4.1 15.16 1.2 29.83-2.56 43.42-1.15 4.83.42 9.67 1.95 14.35l.24.77c.09.55.14 1.13.2 1.7.04.5.1 1 .17 1.5v14.26c1.17 9.64.49 19.66-.17 29.33-.23 3.33-.47 6.77-.62 10.12-.62 3.63.05 6.8.7 9.89.04 1.49.06 3 .08 4.5v28.43c0 1.48 0 3 .08 4.44.85 6.96.46 13.91.06 20.64-.29 5.09-.59 10.35-.34 15.5.08 1.26.13 2.5.17 3.7l.04 1.13v210.8l.05.08c1.18 1.81 1.09 3.66.99 5.62-.03.53-.06 1.08-.06 1.63 0 3.43-.53 6.85-1.04 10.15-.83 5.36-1.69 10.9-.34 16.64.36 2.04.37 3.7.39 5.3v38.38h.81v-38.37a31.11 31.11 0 0 0-.4-5.42c-1.33-5.65-.48-11.13.34-16.43.51-3.33 1.05-6.77 1.05-10.25 0-.53.02-1.06.05-1.6.1-1.94.2-3.95-1.04-5.9V746.31l-.04-1.14c-.04-1.21-.08-2.46-.16-3.73-.25-5.12.05-10.36.34-15.43.4-6.76.79-13.74-.06-20.73-.08-1.4-.08-2.9-.08-4.37v-28.44c-.01-1.53-.04-3.05-.08-4.55v-.05c-.65-3.03-1.32-6.17-.72-9.73.16-3.38.4-6.82.62-10.14.67-9.7 1.35-19.74.17-29.41v-14.27c-.07-.53-.12-1.03-.17-1.52-.05-.58-.11-1.17-.2-1.75V601l-.26-.79c-1.5-4.6-3.04-9.36-1.94-14.02 3.78-13.65 6.7-28.4 2.57-43.68v-57.33h.02Z"/><path fill="url(#ay)" d="M229.7 485.2h-.82v211.24c0 1.44.02 2.98.14 4.57-.02 1.58.3 3.3.6 4.96.29 1.63.56 3.16.56 4.6 0 5.23-.54 10.56-1.07 15.7-.83 8.12-1.7 16.51-.43 24.76l.01.62c.05 1.27.1 2.58.2 3.85v195.2c.16 1.37.66 2.77 1.12 3.96 4.07 8.06 1.23 15.76-1.78 23.92-1 2.7-2.03 5.49-2.78 8.29-.8 3.36.49 6.09 1.73 8.73.65 1.38 1.33 2.8 1.7 4.32v35.01h.8v-35.11c-.38-1.58-1.08-3.06-1.74-4.48-1.25-2.66-2.44-5.17-1.7-8.33a96.37 96.37 0 0 1 2.76-8.23c2.93-7.91 5.94-16.1 1.76-24.36a17.33 17.33 0 0 1-1.07-3.76V755.47a83.6 83.6 0 0 1-.19-3.84l-.02-.66c-1.25-8.2-.4-16.56.43-24.64.53-5.15 1.07-10.49 1.07-15.75 0-1.5-.3-3.13-.58-4.71-.29-1.64-.59-3.33-.57-4.88a58.91 58.91 0 0 1-.14-4.55V485.19Z"/><path fill="url(#az)" d="M262.08 485.2h-.82v98.24l.01.02c.12.71.08 1.4.04 2.06-.05.94-.1 1.82.26 2.73l.04.06c4.84 7.3 2.3 14.2-.4 21.5-1.81 4.92-3.69 10.01-3.21 15.34.28 1.41.68 2.7 1.07 3.94.46 1.5.94 3.04 1.2 4.74l.02.06c.52 1.35.83 2.7.97 4.1v154.07c0 1.5 0 3.04.09 4.57 2.69 16.17 4.15 29.7-3.33 44.76-2.22 3.74-.56 8.3 1.05 12.7.57 1.6 1.18 3.24 1.57 4.8.27 1.09.4 2.19.5 3.24.03.35.07.7.12 1.04v71.31l.04.07c6.8 12.58 1.9 23.6-3.28 35.29-2.13 5.03-.35 10.08 1.36 14.98.71 2.01 1.44 4.1 1.88 6.14v43.97h.82l-.01-44.07a52.93 52.93 0 0 0-1.9-6.24c-1.68-4.79-3.42-9.73-1.38-14.55 5.24-11.79 10.19-22.93 3.29-35.74v-71.2l-.12-1.05c-.11-1.09-.23-2.2-.52-3.32-.4-1.6-1-3.26-1.58-4.87-1.56-4.27-3.17-8.7-1.09-12.22 7.57-15.23 6.1-28.87 3.39-45.1-.08-1.49-.08-3.02-.08-4.51v-154.1a16.23 16.23 0 0 0-1-4.25c-.28-1.74-.76-3.29-1.22-4.8-.39-1.23-.79-2.5-1.05-3.85-.47-5.16 1.39-10.2 3.19-15.06 2.62-7.1 5.33-14.45.34-22-.3-.79-.25-1.6-.21-2.45.04-.69.07-1.4-.05-2.16v-98.2Z"/><path fill="url(#aA)" d="M294.64 485.2h-.82l.01 26.76c2.7 13.46 2.04 25.73-2.07 38.61-1.68 4.25-.44 8.26.76 12.14.5 1.64 1.04 3.34 1.3 5v29c.55 5.88.3 11.85.05 17.61-.15 3.47-.3 7.07-.28 10.57.15 1.02.2 2.2.23 3.23V946.1c0 1.96 0 4.05.08 6.25.36 3.45.07 6.9-.21 10.24-.34 4.01-.69 8.15.13 12.15v60.19h.81v-60.27c-.81-3.93-.48-7.86-.13-12.02.28-3.37.58-6.85.21-10.33-.07-2.17-.07-4.25-.07-6.2v-318c-.04-1.07-.08-2.26-.24-3.27-.02-3.44.13-7.03.28-10.5.25-5.79.5-11.77-.05-17.66v-29.05c-.28-1.7-.81-3.43-1.33-5.1-1.17-3.79-2.37-7.7-.77-11.77 4.14-12.99 4.81-25.34 2.1-38.9V485.2Z"/><path fill="url(#aB)" d="M431.77 485.16c-.48 5.13-.99 26.63-1.6 67.64a58.34 58.34 0 0 0 0 3.5c.34 20.22-.31 40.84-.94 60.77-.68 21.83-1.4 44.41-.83 66.69.03 1.4.01 2.78 0 4.11-.92 71.13-1.68 120.18-2.45 128.4l-.8 8.58c-.22 2.38-.47 16.53-.65 38.82-.01 1.04-.02 2.23 0 3.35.46 3.5.46 7.04.46 10.47.56 6.3-.06 12.57-.66 18.63-.68 6.91-1.38 14.05-.33 21.15.14 1.52.2 2.98.23 4.32l-.02 8.34v4.19c1.5 16.35 1.2 30.4-1 44.28-.93 3.96-.4 7.58.17 11.42.15 1.02.3 2.07.43 3.14l.08.61c.12.9.24 1.8.5 2.67.19 23.4.54 36.43 1.03 38.73l.8-.12c-.47-2.23-.82-15.6-1.02-38.66l-.01-.09c-.25-.82-.36-1.69-.48-2.6l-.08-.62-.44-3.14c-.55-3.78-1.08-7.35-.16-11.23 2.2-13.93 2.52-28.04 1-44.41l.01-4.16c0-2.78 0-5.57.02-8.35a57.55 57.55 0 0 0-.24-4.4c-1.04-7.03-.34-14.14.33-21 .6-6.1 1.23-12.4.67-18.72 0-3.43 0-6.99-.46-10.5a121 121 0 0 1 0-3.3c.19-22.27.42-36.4.65-38.76l.8-8.59c.78-8.23 1.54-57.3 2.45-128.44.02-1.34.04-2.72.01-4.13-.57-22.27.15-44.84.83-66.67.63-19.94 1.28-40.56.95-60.8a61.43 61.43 0 0 1-.02-3.47c.62-41 1.13-62.48 1.61-67.6l-.84-.05Z"/><path fill="url(#aC)" d="M459.45 484.83c-.46.05-.46.05-.54 6.11-.04 3.53-.07 8.75-.1 15.5-.03 11.73-.04 28.39 0 49.54.05 37.69.2 80.29.27 98.48l.02 6.33c0 1.79.04 2.8.06 3.05 1.04 6.16.8 12.33.58 18.32-.18 5.02-.39 10.22.16 15.46 0 1.74.3 3.65.6 5.51.29 1.83.58 3.73.58 5.45v.05c.91 5.4-.25 10.79-1.38 16-1.06 4.85-2.15 9.89-1.58 14.98.34 1.74.88 3.5 1.41 5.2.4 1.29.82 2.62 1.15 3.96.44 1.6.74 3.2.95 5.07.2 5.08.02 9.9-.55 14.68-1.95 16.1-1.33 32.46-.73 48.28.3 8.28.63 16.84.58 25.27l.04 3.7.03 3.63c0 1.17.25 2.45.76 4.03l.2.6c1.63 4.98 3.17 9.67 1.5 14.38-5.33 14.41-3.94 28.69-2.6 42.5l.47 4.86v3.52c.21 54.9.19 95.96-.05 115.64h.82c.23-19.68.26-60.75.05-115.65l-.01-3.55-.47-4.89c-1.4-14.37-2.72-27.95 2.57-42.23 1.74-4.9.17-9.7-1.5-14.78l-.2-.59c-.5-1.52-.72-2.75-.73-3.85l-.02-3.63-.05-3.7c.05-8.43-.27-17-.58-25.29-.6-15.8-1.21-32.13.72-48.18.57-4.82.75-9.66.56-14.79a32.44 32.44 0 0 0-.97-5.18c-.34-1.35-.75-2.7-1.16-4a50.94 50.94 0 0 1-1.39-5.1c-.56-4.98.52-9.95 1.57-14.77 1.14-5.25 2.32-10.68 1.4-16.18 0-1.77-.3-3.67-.6-5.52a35.8 35.8 0 0 1-.58-5.45c-.53-5.23-.34-10.4-.14-15.41.22-6.01.46-12.22-.6-18.4 0-.2-.03-1.21-.04-2.99l-.02-6.33c-.48-137.87-.27-168.1-.01-169.19l-.38-.07.4-.1-.47-.28Z"/><path fill="url(#aD)" d="M496.52 484.84c-.48.09-.64.13-1.05 23.16-.03 1.8-.07 3.65.11 5.71 2.23 16.22-.3 33.31-2.54 48.4-.55 7.36-.13 14.79 1.3 23.4 0 1.18.02 2.57.06 3.96l-.1 7.63.01.04c.4 1.67.92 3.37 1.42 5.02 1.6 5.28 3.25 10.74 1.47 16.38l-.37 1.38c-4.62 17.03-8.98 33.11-3.88 49.62l.05.88c.06 1.44.13 2.93.25 4.4-.13 5.58-.34 11.3-.53 16.83-.6 17.07-1.22 34.73.1 51.88.01 1.06.02 2.12.05 3.16v34.52c-.2 5.31.31 10.65.8 15.8.6 6.35 1.21 12.9.56 19.5-.3 3.12-.79 6.32-1.25 9.4-1.32 8.76-2.68 17.82-.4 26.95l.03.51c.05 1.08.1 2.18.25 3.26v178.3h.81V856.59c-.14-1.1-.2-2.19-.25-3.25l-.04-.6c-2.26-9.02-.91-18.03.4-26.74.46-3.1.94-6.29 1.25-9.44.66-6.65.03-13.23-.56-19.6-.48-5.14-.99-10.46-.8-15.75v-34.53l-.05-3.15v-.04c-1.3-17.13-.69-34.77-.1-51.82.2-5.53.4-11.25.53-16.87-.12-1.49-.18-2.97-.25-4.4l-.06-1c-5.07-16.36-.73-32.37 3.87-49.33l.37-1.38c1.83-5.8.16-11.34-1.47-16.71-.49-1.63-1-3.3-1.4-4.95l.1-7.58c-.05-1.4-.06-2.77-.07-4-1.42-8.62-1.83-16-1.3-23.3 2.24-15.1 4.78-32.24 2.55-48.52-.17-2.02-.14-3.86-.12-5.63.26-14.47.49-22.1.69-22.7a.38.38 0 0 1-.33.2l-.03-.32.38-.16-.46-.18Z"/><path fill="url(#aE)" d="m525.96 485.19-.82.01c.24 7.7.5 24.02.82 49.88l.07 5.7c.14 2.9.6 5.58 1.09 8.4l.26 1.5c0 5.21-.47 10.44-.92 15.5-.8 8.96-1.64 18.21.14 27.54l.03 3.66c.18 18.55.37 38.56.55 59.47l.07.6c.11 1.07.23 2.18.63 3.15a18.48 18.48 0 0 1 1.88 11.45l-.4 1.3c-2.78 9.36-5.4 18.2-2.53 28.02.4 1.45.64 2.85.78 4.58l.18 21c.05 1.2.11 2.7.61 3.95l.04.06c4.26 6.46 2 12.92-.39 19.77-.94 2.7-1.92 5.5-2.43 8.26-.64 6.54.82 12.33 2.52 17.62l.02.88c.02 1.09.06 2.17.1 3.27l.63 72.74c0 1.06.01 2.12.03 3.15-.45 2.86.17 5.68.76 8.4.63 2.88 1.28 5.84.68 8.87-1.69 8.99-3.03 18.69-1.48 28.69.17.89.28 1.75.39 2.57l.1.72c.33 35.44.61 62.72.87 83.38l.1 8.55c.03 4.75.05 9.24.2 13.93l.07 3.9c.14 8.81.28 15.28.4 19.25l.81-.03c-.12-3.96-.26-10.43-.4-19.23l-.07-3.91c-.15-4.68-.18-9.16-.2-13.92l-.03-3.6-.08-4.92c-.26-20.65-.54-47.94-.88-83.41l-.1-.75c-.1-.84-.22-1.7-.4-2.6-1.52-9.9-.18-19.54 1.49-28.48.62-3.14-.04-6.17-.69-9.1-.6-2.8-1.2-5.45-.75-8.22l.01-.02v-.03l-.04-3.17-.62-72.75-.1-3.26-.04-1.01c-1.68-5.25-3.14-10.99-2.5-17.41.5-2.7 1.46-5.47 2.4-8.15 2.33-6.67 4.74-13.57.33-20.27-.41-1.07-.5-2.27-.55-3.72l-.18-21a24.5 24.5 0 0 0-.81-4.72c-2.83-9.67-.22-18.43 2.54-27.7l.4-1.34c.62-4.19-.05-8.27-1.93-11.83-.35-.86-.47-1.93-.57-2.96l-.07-.58-.54-59.44-.05-3.74c-1.75-9.25-.93-18.48-.13-27.4.46-5.09.93-10.33.93-15.58v-.05l-.27-1.53c-.48-2.8-.94-5.45-1.08-8.32l-.06-5.68c-.31-25.87-.58-42.2-.82-49.9Z"/><path fill="url(#aF)" d="M551.36 485.2c-.2 12.38.03 45.6.71 98.7l.05 3.77c.05 1.24.38 2.58.7 3.87.46 1.88.95 3.82.6 5.55v.05c0 2.65-.48 5.26-.93 7.77-.58 3.14-1.18 6.38-.84 9.75l.09 1.96c.57 12.43 1.1 24.18 1.29 36.7l.07 1.58.1 2.44.04.12c3.99 8.3 2.1 16.35.1 24.88-1.03 4.3-2.07 8.75-2.28 13.2-.6 2.56 0 5.15 1.67 7.12.63 1.32 1 2.45 1.12 3.55.1 6.9.22 13.89.34 20.9.05 1.36.18 2.85.7 4.52l.03.06c4.2 7.38 1.96 14.65-.42 22.34-1.4 4.56-2.85 9.27-2.85 14.03 0 1.87.86 3.5 1.77 5.23a19.6 19.6 0 0 1 1.51 3.37l.05 1.26c.03.93.05 1.86.09 2.78.28 17.04.57 33.98.87 50.56.04 2.12.14 4.2.33 6.16l.59 5.1.01.07c.45 1.29.86 2.77 1.25 4.2.2.8.42 1.56.63 2.26 0 4.87-.65 9.72-1.28 14.42-.86 6.38-1.75 12.98-1.03 19.7-.13 1.57-.3 3.23-.5 5.07-.38 3.27-.82 6.7-1.32 10.2-.52 3.08.71 5.73 2.02 8.52l.61 1.33c.1 1.83.15 3.65.18 5.4l.78 41.02c.04 2.02.09 4.1.2 6.1l.24 2.02c2.07 17.09 4.02 33.23-1.66 50-1.8 6.09.02 12.23 2.26 17.95.62 1.55.66 2.91.69 4.13h.4l.41-.02a11.73 11.73 0 0 0-.73-4.32c-2.2-5.62-4-11.65-2.25-17.56 5.72-16.88 3.76-33.1 1.69-50.25l-.25-2c-.1-1.96-.15-4.04-.19-6.05l-.78-41.03c-.03-1.78-.1-3.61-.19-5.48l-.02-.1-.64-1.39c-1.27-2.72-2.47-5.27-1.98-8.18.5-3.52.96-6.95 1.33-10.23.21-1.86.38-3.53.51-5.12v-.05c-.7-6.67.17-13.24 1.03-19.6.63-4.72 1.3-9.61 1.3-14.53l-.02-.08-.65-2.3c-.39-1.42-.78-2.9-1.24-4.2-.19-1.67-.38-3.37-.59-5.08-.18-1.94-.29-4-.33-6.1-.3-16.59-.59-33.52-.87-50.56l-.1-2.78-.05-1.38c-.37-1.25-.98-2.4-1.57-3.52-.88-1.66-1.7-3.22-1.7-4.95 0-4.66 1.44-9.33 2.83-13.85 2.3-7.47 4.68-15.19.38-22.78-.47-1.51-.6-2.83-.68-4.34l-.33-20.92a11.9 11.9 0 0 0-1.2-3.81l-.05-.07a7.45 7.45 0 0 1-1.55-6.63v-.06c.21-4.41 1.25-8.85 2.26-13.13 1.94-8.23 3.95-16.73-.1-25.22-.05-.8-.08-1.6-.11-2.39l-.07-1.57c-.18-12.52-.72-24.27-1.29-36.7l-.09-1.98c-.33-3.3.26-6.5.83-9.6.47-2.53.95-5.15.95-7.85.35-1.84-.14-3.84-.62-5.78a19.27 19.27 0 0 1-.69-3.75l-.05-3.75c-.67-53.1-.9-86.3-.7-98.7l-.82.02Z"/><path fill="url(#aG)" d="M318.53 485.2h-.81c.75 72.92 8.14 484.67 13.34 549.75l.81-.04c-5.2-65.08-12.59-476.8-13.34-549.72Z"/><path fill="url(#aH)" d="M361.56 485.2h-.82c.08 25.22-.77 112.19-1.6 193.94v.13c-.02 1.31-.03 2.62-.02 4.11.14 2.67.1 5.54-.11 7.67l-.04 4.04c-.02 1.47-.03 2.96-.03 4.57a53.05 53.05 0 0 0-.1 8.76l-.34 32.57-.01 2.75c.38 2.92.1 5.8-.17 8.58-.27 2.72-.52 5.3-.2 7.89-.08 1.51-.1 2.83-.1 4.04.01 1.44.08 2.75.2 3.99l-.05 4.03c-1.14 108.56-2.42 231.61-2.33 262.72h.81c-.09-31.11 1.2-154.16 2.33-262.71l.04-4.06a46 46 0 0 1-.19-3.97c0-1.2.03-2.5.1-4.03v-.05c-.33-2.55-.07-5.1.2-7.8.27-2.8.56-5.7.17-8.66l.01-2.7v-1.2l.33-31.4c-.2-3.02-.16-5.94.11-8.7 0-1.65.02-3.14.03-4.6l.04-4c.22-2.15.25-5.04.11-7.73 0-1.47 0-2.78.02-4.09v-.12c.83-81.77 1.68-168.75 1.6-193.98Z"/><path fill="url(#aI)" d="M584.97 485.17h-.81c0 6.19.04 17.78.12 35.43l.03 5.78c.17 1 .5 2.01.83 3 .6 1.89 1.23 3.84.86 5.74l-.01.05c-.15 1.8-.3 3.66-.36 5.44.1 5.65-.2 11.41-.5 16.99-.76 14.24-1.55 28.96 4.44 42.66.55 1.62.83 3.33.83 5.05 0 6.62-4 12.86-7.9 18.9-1 1.57-2.04 3.2-2.98 4.77-.94 1.6-.82 3.48-.7 5.14.02.53.06 1.03.06 1.5 3.89 28.75 6.28 59.76 7.31 94.85l.17 5.92c-.17 2.67.41 5.24.96 7.72.75 3.35 1.45 6.52.46 9.88-3.15 8.5-2.24 16.85-.94 23.89v5.9c-.04 14.23-.2 28.23-.32 38.83l-.07 5.54c-.2 3.35.54 6.76 1.26 10.08.98 4.5 2 9.15.65 13.71-.45 1.64-.92 3.27-1.38 4.84-3.16 10.95-6.15 21.28-.66 32.14.03 1.62.04 3.33.03 5.09-.03 6.2-.27 12.54-.5 18.66-.5 12.6-1 25.64.4 38.34.07.71.11 1.41.16 2.1l.08 1.1c.04 1.13.11 2.13.18 3.06 1.7 8.47.9 16.8.13 24.87-.53 5.49-1.07 11.16-.83 16.83.6 5.62 1.17 11.53 1.05 16.82.04 1.65.05 3.28.05 4.8.03 6.2.03 11.05.03 14.36h.82l-.03-14.36c-.01-1.52-.02-3.15-.05-4.8.13-5.3-.45-11.24-1.06-16.86-.24-5.61.3-11.26.83-16.74.77-8.1 1.58-16.48-.12-25-.08-.89-.14-1.88-.19-3.01l-.07-1.1-.16-2.12c-1.4-12.66-.9-25.68-.41-38.27.23-6.12.48-12.46.5-18.67.01-1.8 0-3.53-.04-5.17v-.07l-.03-.07c-5.42-10.67-2.46-20.92.67-31.76.46-1.58.93-3.2 1.38-4.84 1.4-4.7.36-9.42-.64-14-.71-3.27-1.44-6.65-1.25-9.93l.07-5.56c.13-10.6.29-24.6.32-38.84l.01-5.92v-.06c-1.3-6.97-2.2-15.23.9-23.62 1.05-3.52.3-6.91-.44-10.19-.54-2.44-1.1-4.97-.95-7.57l-.16-5.95c-1.03-35.12-3.43-66.15-7.32-94.87 0-.46-.03-.97-.06-1.5-.12-1.66-.23-3.37.62-4.8.92-1.56 1.92-3.1 2.97-4.75 3.93-6.1 8-12.43 7.99-19.22 0-1.8-.3-3.56-.87-5.26-5.94-13.6-5.15-28.26-4.4-42.43.3-5.58.6-11.36.5-17 .06-1.76.21-3.62.36-5.4.4-2.04-.25-4.06-.89-6.02-.32-1-.63-1.96-.8-2.89l-.02-5.7c-.07-17.68-.1-29.27-.1-35.46Z"/><path fill="url(#aJ)" d="m619.3 485.19-.81.01c.2 7.07.45 22.06.72 44.54.04 1.63.3 3.49.58 5.45l.04.29c.17 1.22.28 2.47.32 3.81.04 1.19.04 2.43-.01 3.8-.34 5.44.05 10.94.44 16.27.77 10.79 1.5 20.98-3.18 31.17-1.74 4.4-.4 8.43 1 12.7.54 1.62 1.1 3.3 1.47 5 .1 2 .16 3.8.19 5.5.12 9.56.2 18.29.27 26.68.01 1.54.07 3.02.64 4.4 2.3 4.82 4.68 9.78 1.79 14.66a46.92 46.92 0 0 0-2.06 35.28l.04 5.47.2 27.85c.01 1.85.1 3.79.26 5.75l.04.1c6.38 12.41 1.58 24.01-3.5 36.3l-.92 2.24c-1.27 3.22.61 5.93 2.44 8.55a21.02 21.02 0 0 1 2.17 3.58l.05 10.22c0 1.7.02 3.73.12 5.9-.02 4.83.3 9.7.6 14.43.7 10.7 1.43 21.74-1.85 32.8-1.92 7.58-.38 14.89 1.17 20.42.12 1.52.19 3.04.25 4.5.03 7.48.08 14.83.1 22.02 0 1.3 0 2.62.04 3.96-.18 4.54.33 9.14.8 13.58.6 5.54 1.24 11.26.58 17.04-.32 2.4-.82 4.86-1.3 7.24-1.32 6.51-2.68 13.26-.58 20.03.36 1.81.6 3.84.7 5.99.09 38.16.05 62.46-.1 72.21l.8.01c.17-9.76.2-34.06.11-72.24-.1-2.19-.33-4.25-.7-6.12-2.08-6.65-.72-13.33.58-19.78.48-2.38.98-4.85 1.3-7.28.66-5.85.03-11.6-.57-17.17-.48-4.42-.98-9-.8-13.5-.04-1.37-.04-2.67-.05-3.97l-.1-22.02c-.06-1.5-.12-3.04-.25-4.57l-.01-.06c-1.54-5.46-3.07-12.68-1.18-20.13 3.3-11.15 2.58-22.26 1.87-33-.3-4.7-.63-9.58-.6-14.4-.1-2.17-.12-4.2-.12-5.9l-.08-10.39a21.4 21.4 0 0 0-2.26-3.75c-1.82-2.6-3.52-5.07-2.38-7.98l.92-2.24c5.13-12.4 9.97-24.1 3.51-36.73a70.92 70.92 0 0 1-.26-5.64l-.2-27.86-.05-5.6a46.33 46.33 0 0 1 2-34.87c3.03-5.12.6-10.24-1.77-15.18a11 11 0 0 1-.57-4.15c-.07-8.4-.16-17.13-.28-26.7-.02-1.7-.08-3.51-.19-5.53v-.05a49.7 49.7 0 0 0-1.49-5.1c-1.37-4.15-2.67-8.08-1.01-12.27 4.72-10.31 3.96-21.06 3.22-31.44-.38-5.3-.77-10.8-.44-16.2.06-1.39.06-2.64.01-3.84a36.05 36.05 0 0 0-.33-3.88l-.04-.29c-.27-1.94-.53-3.78-.57-5.38a3279.2 3279.2 0 0 0-.73-44.55Z"/><path fill="url(#aK)" d="m393.44 485.08-.79.17c2.76 9.09 4.5 35.03 5.15 77.13a94 94 0 0 0 .1 3.05c.5 8.17.3 16.26.1 24.1-.19 7.7-.38 15.67.1 23.63l-.01 3.65c-.31 104.14-4.61 247.88-8.74 344.14-.1 2.01-.17 4-.26 5.95-.13 1.8-.2 3.75-.25 5.64-.07 1.87-.13 3.8-.26 5.65l-.24 5.4c-1.24 26.57-2.32 44.8-3.04 51.32l.82.06c.71-6.54 1.8-24.77 3.04-51.35l.25-5.4c.12-1.85.18-3.78.25-5.66.06-1.97.13-3.84.25-5.63l.26-5.95c4.13-96.27 8.43-240.02 8.74-344.16v-3.67c-.47-7.95-.28-15.9-.08-23.6.2-7.84.4-15.95-.1-24.13-.06-.98-.09-2-.1-3.03-.66-42.17-2.4-68.17-5.19-77.3Z"/><path fill="url(#aL)" d="M726.2 485.16c-.47 5.13-.98 26.63-1.6 67.64a62.4 62.4 0 0 0 .01 3.5c.34 20.22-.31 40.84-.94 60.77-.68 21.83-1.4 44.41-.83 66.69.02 1.4 0 2.78 0 4.11-.92 71.13-1.69 120.18-2.45 128.4l-.8 8.58c-.23 2.38-.47 16.53-.66 38.82v3.35c.47 3.5.47 7.04.47 10.47.55 6.3-.07 12.57-.66 18.63-.69 6.91-1.38 14.05-.34 21.15.15 1.52.2 2.98.23 4.32l-.01 8.34-.01 4.19c1.51 16.35 1.2 30.4-.99 44.28-.93 3.96-.4 7.58.16 11.42.14 1.02.3 2.07.43 3.14l.08.61c.12.9.24 1.8.49 2.67.2 23.4.55 36.43 1.04 38.73l.8-.12c-.47-2.23-.82-15.6-1.02-38.66l-.01-.09c-.25-.82-.36-1.69-.49-2.6l-.08-.62c-.13-1.07-.28-2.13-.43-3.14-.55-3.78-1.08-7.35-.16-11.23 2.2-13.93 2.51-28.04 1-44.41v-4.16c.02-2.78.02-5.57.02-8.35a57.55 57.55 0 0 0-.23-4.4c-1.04-7.03-.34-14.14.33-21 .6-6.1 1.22-12.4.66-18.72 0-3.43 0-6.99-.46-10.5a121 121 0 0 1 0-3.3c.18-22.27.42-36.4.65-38.76l.8-8.59c.78-8.23 1.54-57.3 2.45-128.44.02-1.34.04-2.72.01-4.13-.57-22.27.15-44.84.83-66.67.63-19.94 1.28-40.56.95-60.8a61.43 61.43 0 0 1-.02-3.47c.62-41 1.13-62.48 1.61-67.6l-.82-.05Z"/><path fill="url(#aM)" d="M753.89 484.83c-.47.05-.47.05-.54 6.11-.04 3.53-.07 8.75-.1 15.5-.03 11.73-.04 28.39 0 49.54.05 37.69.2 80.29.26 98.48l.03 6.33c0 1.79.04 2.8.05 3.05 1.04 6.16.8 12.33.59 18.32-.19 5.02-.4 10.22.15 15.46 0 1.74.3 3.65.6 5.51.3 1.83.58 3.73.58 5.45v.05c.92 5.4-.25 10.79-1.38 16-1.06 4.85-2.15 9.89-1.58 14.98.34 1.74.89 3.5 1.42 5.2.4 1.29.81 2.62 1.15 3.96.43 1.6.74 3.2.95 5.07.2 5.08.01 9.9-.56 14.68-1.94 16.1-1.32 32.46-.73 48.28.31 8.28.64 16.84.59 25.27 0 1.23.02 2.46.04 3.7l.02 3.63c.01 1.17.25 2.45.77 4.03l.2.6c1.63 4.98 3.17 9.67 1.5 14.38-5.33 14.41-3.94 28.69-2.6 42.5l.47 4.86v3.52c.2 54.9.18 95.96-.05 115.64h.81c.24-19.68.26-60.75.06-115.65l-.02-3.55c-.14-1.65-.3-3.27-.46-4.89-1.4-14.37-2.73-27.95 2.56-42.23 1.74-4.9.17-9.7-1.5-14.78l-.2-.59a12.6 12.6 0 0 1-.72-3.85l-.03-3.63-.04-3.7c.05-8.43-.27-17-.58-25.29-.6-15.8-1.22-32.13.72-48.18.57-4.82.75-9.66.55-14.79a32.22 32.22 0 0 0-.97-5.18c-.33-1.35-.74-2.7-1.15-4a50.66 50.66 0 0 1-1.4-5.1c-.55-4.98.53-9.95 1.58-14.77 1.14-5.25 2.32-10.68 1.4-16.18 0-1.77-.3-3.67-.6-5.52a35.8 35.8 0 0 1-.58-5.45c-.54-5.23-.34-10.4-.15-15.41.23-6.01.47-12.22-.58-18.4-.01-.2-.04-1.21-.05-2.99l-.03-6.33c-.48-137.87-.27-168.1 0-169.19l-.39-.07.4-.1-.46-.28Z"/><path fill="url(#aN)" d="M790.96 484.84c-.48.09-.65.13-1.05 23.16-.04 1.8-.07 3.65.11 5.71 2.22 16.22-.31 33.31-2.55 48.4-.54 7.36-.13 14.79 1.3 23.4.01 1.18.02 2.57.06 3.96l-.09 7.63.01.04c.4 1.67.92 3.37 1.42 5.02 1.6 5.28 3.24 10.74 1.47 16.38l-.38 1.38c-4.6 17.03-8.97 33.11-3.87 49.62l.04.88c.07 1.44.13 2.93.25 4.4-.13 5.58-.33 11.3-.52 16.83-.6 17.07-1.23 34.73.1 51.88 0 1.06.02 2.12.04 3.16v34.52c-.19 5.31.32 10.65.8 15.8.6 6.35 1.22 12.9.57 19.5-.31 3.12-.79 6.32-1.25 9.4-1.32 8.76-2.68 17.82-.4 26.95l.02.51c.06 1.08.12 2.18.25 3.26v178.3h.82V856.59c-.14-1.1-.2-2.19-.25-3.25l-.05-.6c-2.26-9.02-.9-18.03.4-26.74.47-3.1.95-6.29 1.26-9.44.66-6.65.03-13.23-.57-19.6-.48-5.14-.98-10.46-.8-15.75v-34.53l-.04-3.15v-.04c-1.31-17.13-.7-34.77-.1-51.82.2-5.53.4-11.25.53-16.87-.12-1.49-.19-2.97-.25-4.4l-.06-1c-5.07-16.36-.73-32.37 3.87-49.33l.37-1.38c1.83-5.8.16-11.34-1.47-16.71-.5-1.63-1-3.3-1.4-4.95l.09-7.58c-.04-1.4-.05-2.77-.06-4-1.42-8.62-1.84-16-1.3-23.3 2.24-15.1 4.77-32.24 2.55-48.52-.18-2.02-.14-3.86-.12-5.63.25-14.47.48-22.1.68-22.7a.38.38 0 0 1-.32.2l-.03-.32.38-.16-.46-.18Z"/><path fill="url(#aO)" d="m820.4 485.19-.82.01c.23 7.7.5 24.02.82 49.88l.06 5.7c.14 2.9.6 5.58 1.1 8.4l.26 1.5c0 5.21-.48 10.44-.93 15.5-.8 8.96-1.63 18.21.14 27.54l.03 3.66c.18 18.55.37 38.56.55 59.47l.07.6c.11 1.07.23 2.18.62 3.15a18.49 18.49 0 0 1 1.88 11.45l-.39 1.3c-2.78 9.36-5.4 18.2-2.54 28.02.4 1.45.65 2.85.8 4.58l.17 21c.05 1.2.1 2.7.61 3.95l.03.06c4.27 6.46 2 12.92-.38 19.77-.94 2.7-1.92 5.5-2.43 8.26-.64 6.54.82 12.33 2.51 17.62l.03.88c.02 1.09.05 2.17.1 3.27.2 24.72.42 49.22.62 72.74l.04 3.15c-.45 2.86.17 5.68.76 8.4.63 2.88 1.28 5.84.68 8.87-1.69 8.99-3.03 18.69-1.49 28.69.18.89.29 1.75.4 2.57l.1.72c.33 35.44.61 62.72.87 83.38l.1 8.55c.02 4.75.05 9.24.2 13.93l.07 3.9c.14 8.81.28 15.28.4 19.25l.81-.03c-.12-3.96-.26-10.43-.4-19.23l-.07-3.91a524.5 524.5 0 0 1-.2-13.92l-.03-3.6-.06-4.96c-.26-20.65-.55-47.94-.88-83.4l-.1-.76c-.12-.84-.23-1.7-.4-2.6-1.53-9.9-.19-19.53 1.48-28.48.62-3.14-.04-6.16-.68-9.1-.61-2.8-1.2-5.45-.75-8.21v-.06l-.03-3.17c-.22-23.51-.42-48.02-.63-72.74l-.1-3.27-.04-1.01c-1.68-5.25-3.14-10.98-2.5-17.4.5-2.7 1.47-5.47 2.4-8.15 2.33-6.67 4.74-13.57.34-20.28-.42-1.06-.5-2.26-.56-3.72l-.17-21a24 24 0 0 0-.82-4.72c-2.82-9.67-.22-18.42 2.54-27.69l.4-1.34c.63-4.2-.05-8.27-1.93-11.83-.35-.87-.46-1.93-.57-2.97l-.06-.57-.55-59.44-.04-3.74c-1.76-9.26-.94-18.48-.13-27.4.45-5.09.93-10.34.93-15.58l-.01-.05-.26-1.54a66.2 66.2 0 0 1-1.08-8.32l-.07-5.68c-.32-25.83-.6-42.15-.83-49.85Z"/><path fill="url(#aP)" d="M845.8 485.2c-.2 12.38.03 45.6.7 98.7l.05 3.77c.05 1.24.39 2.58.7 3.87.47 1.88.96 3.82.62 5.55l-.01.05c0 2.65-.48 5.26-.94 7.77-.58 3.14-1.17 6.38-.84 9.75l.1 1.96c.56 12.43 1.1 24.18 1.29 36.7.02.53.05 1.05.06 1.58.03.8.07 1.63.12 2.44l.03.12c3.99 8.3 2.09 16.35.09 24.88-1.02 4.3-2.06 8.75-2.27 13.2-.6 2.56 0 5.15 1.67 7.12.63 1.32.99 2.45 1.12 3.55l.33 20.9c.06 1.36.19 2.85.71 4.52l.02.06c4.2 7.38 1.97 14.65-.41 22.34-1.4 4.56-2.86 9.27-2.86 14.03 0 1.87.87 3.5 1.78 5.23a19.6 19.6 0 0 1 1.51 3.37l.04 1.26.1 2.78.86 50.56a80 80 0 0 0 .34 6.16c.2 1.72.4 3.42.58 5.1l.02.07c.45 1.29.85 2.77 1.24 4.2.22.8.43 1.56.64 2.26 0 4.87-.65 9.72-1.29 14.42-.85 6.38-1.74 12.98-1.02 19.7-.13 1.57-.3 3.23-.5 5.07-.38 3.27-.82 6.7-1.33 10.2-.52 3.08.72 5.73 2.03 8.52l.61 1.33c.09 1.83.15 3.65.18 5.4l.78 41.02c.04 2.02.08 4.1.2 6.1l.24 2.02c2.07 17.09 4.01 33.23-1.66 50-1.8 6.09.02 12.23 2.25 17.95.62 1.55.66 2.91.7 4.13h.4l.41-.02a11.75 11.75 0 0 0-.73-4.32c-2.2-5.62-4-11.65-2.25-17.56 5.71-16.88 3.76-33.1 1.69-50.25l-.25-2c-.11-1.96-.15-4.04-.2-6.05l-.78-41.03c-.03-1.78-.1-3.61-.18-5.48l-.03-.1c-.2-.47-.42-.93-.63-1.39-1.27-2.72-2.48-5.27-1.98-8.18.5-3.52.95-6.95 1.33-10.23.2-1.86.38-3.53.51-5.12v-.05c-.7-6.67.17-13.24 1.03-19.6.63-4.72 1.28-9.61 1.28-14.53l-.01-.08c-.22-.72-.43-1.5-.65-2.3-.39-1.42-.79-2.9-1.24-4.2-.19-1.67-.38-3.37-.59-5.08-.18-1.94-.3-4-.33-6.1-.3-16.59-.59-33.52-.87-50.56l-.1-2.78-.05-1.38c-.37-1.25-.98-2.4-1.57-3.52-.88-1.66-1.7-3.22-1.7-4.95 0-4.66 1.44-9.33 2.83-13.85 2.3-7.47 4.68-15.19.38-22.78-.47-1.51-.6-2.83-.68-4.34l-.33-20.92a11.87 11.87 0 0 0-1.2-3.81l-.05-.07a7.45 7.45 0 0 1-1.55-6.63v-.06c.2-4.41 1.25-8.85 2.26-13.13 1.94-8.23 3.95-16.73-.1-25.22-.05-.8-.08-1.6-.11-2.39l-.07-1.57a1115.7 1115.7 0 0 0-1.3-36.7l-.08-1.98c-.33-3.3.26-6.5.83-9.6.46-2.53.94-5.15.94-7.85.36-1.84-.13-3.84-.62-5.78-.32-1.32-.63-2.56-.68-3.75l-.05-3.75c-.67-53.1-.9-86.3-.7-98.7l-.81.02Z"/><path fill="url(#aQ)" d="M656 485.2h-.82c.07 25.21-.77 112.16-1.61 193.9v.12c-.01 1.31-.03 2.62-.02 4.1a55 55 0 0 1-.1 7.68l-.04 4.03a387.3 387.3 0 0 0-.04 4.58c-.26 2.76-.3 5.72-.1 8.75l-.34 32.56v2.75c.38 2.92.1 5.8-.17 8.57-.27 2.72-.53 5.3-.2 7.9a72 72 0 0 0-.1 4.02c.01 1.45.07 2.75.19 4l-.04 4.02c-1.13 108.54-2.41 231.54-2.33 262.65h.81c-.09-31.1 1.2-154.1 2.33-262.64l.04-4.06a46.36 46.36 0 0 1-.19-3.97c0-1.2.03-2.5.1-4.03v-.05c-.32-2.55-.07-5.1.2-7.8.27-2.8.56-5.7.17-8.66 0-.86 0-1.78.02-2.7v-1.2l.33-31.38c-.2-3.02-.16-5.95.1-8.7 0-1.65.02-3.14.04-4.61l.04-4c.21-2.14.24-5.04.1-7.73l.02-4.08v-.12c.83-81.73 1.68-168.69 1.6-193.9Z"/><path fill="url(#aR)" d="M879.4 485.17h-.8c0 6.19.03 17.78.12 35.43l.03 5.78c.17 1 .5 2.01.82 3 .61 1.89 1.24 3.84.86 5.74v.05c-.15 1.8-.3 3.66-.36 5.44.1 5.65-.2 11.41-.5 16.99-.76 14.24-1.55 28.96 4.44 42.66a16 16 0 0 1 .83 5.05c0 6.62-4 12.86-7.9 18.9-1 1.57-2.05 3.2-2.98 4.77-.95 1.6-.83 3.48-.71 5.14.03.53.07 1.03.07 1.5 3.88 28.75 6.28 59.76 7.3 94.85.07 1.98.12 3.95.17 5.92-.16 2.67.42 5.24.97 7.72.75 3.35 1.45 6.52.46 9.88-3.15 8.5-2.24 16.85-.94 23.89v5.9c-.04 14.23-.2 28.23-.32 38.83l-.08 5.54c-.2 3.35.55 6.76 1.27 10.08.98 4.5 2 9.15.64 13.71-.44 1.64-.92 3.27-1.37 4.84-3.17 10.95-6.15 21.28-.67 32.14.03 1.62.04 3.33.03 5.09-.02 6.2-.26 12.54-.5 18.66-.49 12.6-1 25.64.41 38.34l.16 2.1.07 1.1c.05 1.13.12 2.13.19 3.06 1.7 8.47.9 16.8.12 24.87-.53 5.49-1.07 11.16-.83 16.83.6 5.62 1.18 11.53 1.06 16.82.03 1.65.05 3.28.05 4.8l.03 14.36h.81c0-3.3 0-8.16-.03-14.36 0-1.52-.01-3.15-.05-4.8.13-5.3-.44-11.24-1.05-16.86-.24-5.61.3-11.26.82-16.74.78-8.1 1.58-16.48-.12-25-.07-.89-.13-1.88-.18-3.01l-.08-1.1-.15-2.12c-1.4-12.66-.9-25.68-.42-38.27a523 523 0 0 0 .5-18.67c.02-1.8 0-3.53-.03-5.17v-.07l-.04-.07c-5.41-10.67-2.45-20.92.68-31.76.46-1.58.93-3.2 1.38-4.84 1.39-4.7.35-9.42-.64-14-.72-3.27-1.45-6.65-1.25-9.93l.07-5.56c.13-10.6.28-24.6.32-38.84v-5.98c-1.3-6.97-2.2-15.23.9-23.62 1.05-3.52.3-6.91-.43-10.19-.54-2.44-1.1-4.97-.95-7.57-.05-2-.1-3.98-.17-5.95-1.03-35.12-3.42-66.15-7.31-94.87 0-.46-.03-.97-.07-1.5-.11-1.66-.22-3.37.62-4.8.93-1.56 1.92-3.1 2.97-4.75 3.93-6.1 8-12.43 8-19.22 0-1.8-.3-3.56-.88-5.26-5.93-13.6-5.15-28.26-4.4-42.43.3-5.58.6-11.36.5-17 .07-1.76.22-3.62.36-5.4.4-2.04-.25-4.06-.88-6.02a23 23 0 0 1-.8-2.89l-.03-5.7c-.06-17.68-.1-29.27-.1-35.46Z"/><path fill="url(#aS)" d="m913.74 485.19-.82.01c.21 7.07.46 22.06.73 44.54.04 1.63.3 3.49.57 5.45l.04.29c.17 1.22.29 2.47.33 3.81a54 54 0 0 1-.02 3.8c-.33 5.44.06 10.94.44 16.27.78 10.79 1.5 20.98-3.17 31.17-1.74 4.4-.4 8.43 1 12.7.54 1.62 1.09 3.3 1.46 5 .11 2 .17 3.8.2 5.5.11 9.56.2 18.29.27 26.68 0 1.54.06 3.02.63 4.4 2.3 4.82 4.68 9.78 1.8 14.66a46.92 46.92 0 0 0-2.07 35.28l.05 5.47.2 27.85c0 1.85.1 3.79.26 5.75l.03.1c6.38 12.41 1.58 24.01-3.5 36.3l-.92 2.24c-1.27 3.22.62 5.93 2.44 8.55a21.02 21.02 0 0 1 2.18 3.58l.05 10.22c0 1.7.02 3.73.12 5.9-.03 4.83.3 9.7.6 14.43.7 10.7 1.43 21.74-1.86 32.8-1.92 7.58-.38 14.89 1.18 20.42.12 1.52.18 3.04.25 4.5l.1 22.02c0 1.3 0 2.62.04 3.96-.18 4.54.32 9.14.8 13.58.6 5.54 1.23 11.26.57 17.04-.32 2.4-.81 4.86-1.3 7.24-1.31 6.51-2.68 13.26-.57 20.03.36 1.81.6 3.84.7 5.99.08 38.16.05 62.46-.11 72.21l.81.01c.16-9.76.2-34.06.1-72.24-.1-2.19-.33-4.25-.7-6.12-2.07-6.65-.72-13.33.58-19.78.49-2.38.99-4.85 1.3-7.28.67-5.85.04-11.6-.56-17.17-.48-4.42-.98-9-.8-13.5-.04-1.37-.04-2.67-.05-3.97l-.1-22.02c-.06-1.5-.13-3.04-.26-4.57v-.06c-1.54-5.46-3.07-12.68-1.19-20.13 3.3-11.15 2.58-22.26 1.88-33-.31-4.7-.63-9.58-.6-14.4-.1-2.17-.12-4.2-.13-5.9l-.07-10.39a21.33 21.33 0 0 0-2.26-3.75c-1.82-2.6-3.53-5.07-2.38-7.98l.92-2.24c5.13-12.4 9.97-24.1 3.5-36.73a71.4 71.4 0 0 1-.25-5.64l-.2-27.86-.06-5.6a46.33 46.33 0 0 1 2-34.87c3.04-5.12.6-10.24-1.76-15.18a11.02 11.02 0 0 1-.58-4.15c-.06-8.4-.15-17.13-.27-26.7a149 149 0 0 0-.2-5.53v-.05a49.7 49.7 0 0 0-1.48-5.1c-1.38-4.15-2.67-8.08-1.02-12.27 4.73-10.31 3.97-21.06 3.23-31.44-.39-5.3-.78-10.8-.45-16.2.06-1.39.06-2.64.02-3.84a36.04 36.04 0 0 0-.33-3.88l-.04-.29c-.27-1.94-.53-3.78-.57-5.38-.29-22.48-.52-37.47-.74-44.55Z"/><path fill="url(#aT)" d="m687.88 485.08-.8.17c2.77 9.09 4.5 35.03 5.16 77.13.02 1.03.05 2.06.1 3.05.5 8.17.3 16.26.1 24.1-.2 7.7-.39 15.67.1 23.63l-.01 3.65c-.31 104.14-4.62 247.88-8.75 344.14l-.25 5.95c-.14 1.8-.2 3.75-.26 5.64-.06 1.87-.12 3.8-.25 5.65l-.24 5.4c-1.25 26.57-2.32 44.8-3.04 51.32l.81.06c.72-6.54 1.8-24.77 3.05-51.35l.24-5.4c.12-1.85.19-3.78.25-5.66.07-1.97.13-3.84.26-5.63l.26-5.95c4.12-96.27 8.43-240.02 8.74-344.16v-3.67c-.48-7.95-.28-15.9-.08-23.6.2-7.84.4-15.95-.11-24.13-.05-.98-.08-2-.1-3.03-.66-42.17-2.4-68.17-5.18-77.3Z"/></g><defs><linearGradient id="b" x1="488.73" x2="488.73" y1="-3.44" y2="546.72" gradientUnits="userSpaceOnUse"><stop stop-color="#fff" stop-opacity="0"/><stop offset=".73" stop-color="#5924B0" stop-opacity=".19"/></linearGradient><linearGradient id="c" x1="488.73" x2="488.73" y1="-3.44" y2="546.72" gradientUnits="userSpaceOnUse"><stop stop-color="#fff" stop-opacity="0"/><stop offset=".73" stop-color="#5924B0" stop-opacity=".19"/></linearGradient><linearGradient id="d" x1="488.73" x2="488.73" y1="-3.44" y2="546.72" gradientUnits="userSpaceOnUse"><stop stop-color="#fff" stop-opacity="0"/><stop offset=".73" stop-color="#5924B0" stop-opacity=".19"/></linearGradient><linearGradient id="e" x1="488.73" x2="488.73" y1="-3.44" y2="546.72" gradientUnits="userSpaceOnUse"><stop stop-color="#fff" stop-opacity="0"/><stop offset=".73" stop-color="#5924B0" stop-opacity=".19"/></linearGradient><linearGradient id="f" x1="488.73" x2="488.73" y1="-3.44" y2="546.72" gradientUnits="userSpaceOnUse"><stop stop-color="#fff" stop-opacity="0"/><stop offset=".73" stop-color="#5924B0" stop-opacity=".19"/></linearGradient><linearGradient id="g" x1="488.73" x2="488.73" y1="-3.44" y2="546.72" gradientUnits="userSpaceOnUse"><stop stop-color="#fff" stop-opacity="0"/><stop offset=".73" stop-color="#5924B0" stop-opacity=".19"/></linearGradient><linearGradient id="h" x1="488.73" x2="488.73" y1="-3.44" y2="546.72" gradientUnits="userSpaceOnUse"><stop stop-color="#fff" stop-opacity="0"/><stop offset=".73" stop-color="#5924B0" stop-opacity=".19"/></linearGradient><linearGradient id="i" x1="488.73" x2="488.73" y1="-3.44" y2="546.72" gradientUnits="userSpaceOnUse"><stop stop-color="#fff" stop-opacity="0"/><stop offset=".73" stop-color="#5924B0" stop-opacity=".19"/></linearGradient><linearGradient id="j" x1="488.73" x2="488.73" y1="-3.44" y2="546.72" gradientUnits="userSpaceOnUse"><stop stop-color="#fff" stop-opacity="0"/><stop offset=".73" stop-color="#5924B0" stop-opacity=".19"/></linearGradient><linearGradient id="k" x1="488.73" x2="488.73" y1="-3.44" y2="546.72" gradientUnits="userSpaceOnUse"><stop stop-color="#fff" stop-opacity="0"/><stop offset=".73" stop-color="#5924B0" stop-opacity=".19"/></linearGradient><linearGradient id="l" x1="488.73" x2="488.73" y1="-3.44" y2="546.72" gradientUnits="userSpaceOnUse"><stop stop-color="#fff" stop-opacity="0"/><stop offset=".73" stop-color="#5924B0" stop-opacity=".19"/></linearGradient><linearGradient id="m" x1="488.73" x2="488.73" y1="-3.44" y2="546.72" gradientUnits="userSpaceOnUse"><stop stop-color="#fff" stop-opacity="0"/><stop offset=".73" stop-color="#5924B0" stop-opacity=".19"/></linearGradient><linearGradient id="n" x1="488.73" x2="488.73" y1="-3.44" y2="546.72" gradientUnits="userSpaceOnUse"><stop stop-color="#fff" stop-opacity="0"/><stop offset=".73" stop-color="#5924B0" stop-opacity=".19"/></linearGradient><linearGradient id="o" x1="488.73" x2="488.73" y1="-3.44" y2="546.72" gradientUnits="userSpaceOnUse"><stop stop-color="#fff" stop-opacity="0"/><stop offset=".73" stop-color="#5924B0" stop-opacity=".19"/></linearGradient><linearGradient id="p" x1="488.73" x2="488.73" y1="-3.44" y2="546.72" gradientUnits="userSpaceOnUse"><stop stop-color="#fff" stop-opacity="0"/><stop offset=".73" stop-color="#5924B0" stop-opacity=".19"/></linearGradient><linearGradient id="q" x1="488.73" x2="488.73" y1="-3.44" y2="546.72" gradientUnits="userSpaceOnUse"><stop stop-color="#fff" stop-opacity="0"/><stop offset=".73" stop-color="#5924B0" stop-opacity=".19"/></linearGradient><linearGradient id="r" x1="488.73" x2="488.73" y1="-3.44" y2="546.72" gradientUnits="userSpaceOnUse"><stop stop-color="#fff" stop-opacity="0"/><stop offset=".73" stop-color="#5924B0" stop-opacity=".19"/></linearGradient><linearGradient id="s" x1="488.73" x2="488.73" y1="-3.44" y2="546.72" gradientUnits="userSpaceOnUse"><stop stop-color="#fff" stop-opacity="0"/><stop offset=".73" stop-color="#5924B0" stop-opacity=".19"/></linearGradient><linearGradient id="t" x1="488.73" x2="488.73" y1="-3.44" y2="546.72" gradientUnits="userSpaceOnUse"><stop stop-color="#fff" stop-opacity="0"/><stop offset=".73" stop-color="#5924B0" stop-opacity=".19"/></linearGradient><linearGradient id="u" x1="488.73" x2="488.73" y1="-3.44" y2="546.72" gradientUnits="userSpaceOnUse"><stop stop-color="#fff" stop-opacity="0"/><stop offset=".73" stop-color="#5924B0" stop-opacity=".19"/></linearGradient><linearGradient id="v" x1="488.73" x2="488.73" y1="-3.44" y2="546.72" gradientUnits="userSpaceOnUse"><stop stop-color="#fff" stop-opacity="0"/><stop offset=".73" stop-color="#5924B0" stop-opacity=".19"/></linearGradient><linearGradient id="w" x1="488.73" x2="488.73" y1="-3.44" y2="546.72" gradientUnits="userSpaceOnUse"><stop stop-color="#fff" stop-opacity="0"/><stop offset=".73" stop-color="#5924B0" stop-opacity=".19"/></linearGradient><linearGradient id="x" x1="488.73" x2="488.73" y1="-3.44" y2="546.72" gradientUnits="userSpaceOnUse"><stop stop-color="#fff" stop-opacity="0"/><stop offset=".73" stop-color="#5924B0" stop-opacity=".19"/></linearGradient><linearGradient id="y" x1="488.73" x2="488.73" y1="-3.44" y2="546.72" gradientUnits="userSpaceOnUse"><stop stop-color="#fff" stop-opacity="0"/><stop offset=".73" stop-color="#5924B0" stop-opacity=".19"/></linearGradient><linearGradient id="z" x1="488.73" x2="488.73" y1="-3.44" y2="546.72" gradientUnits="userSpaceOnUse"><stop stop-color="#fff" stop-opacity="0"/><stop offset=".73" stop-color="#5924B0" stop-opacity=".19"/></linearGradient><linearGradient id="A" x1="488.73" x2="488.73" y1="-3.44" y2="546.72" gradientUnits="userSpaceOnUse"><stop stop-color="#fff" stop-opacity="0"/><stop offset=".73" stop-color="#5924B0" stop-opacity=".19"/></linearGradient><linearGradient id="B" x1="488.73" x2="488.73" y1="-3.44" y2="546.72" gradientUnits="userSpaceOnUse"><stop stop-color="#fff" stop-opacity="0"/><stop offset=".73" stop-color="#5924B0" stop-opacity=".19"/></linearGradient><linearGradient id="C" x1="488.73" x2="488.73" y1="-3.44" y2="546.72" gradientUnits="userSpaceOnUse"><stop stop-color="#fff" stop-opacity="0"/><stop offset=".73" stop-color="#5924B0" stop-opacity=".19"/></linearGradient><linearGradient id="D" x1="488.73" x2="488.73" y1="-3.44" y2="546.72" gradientUnits="userSpaceOnUse"><stop stop-color="#fff" stop-opacity="0"/><stop offset=".73" stop-color="#5924B0" stop-opacity=".19"/></linearGradient><linearGradient id="E" x1="488.73" x2="488.73" y1="-3.44" y2="546.72" gradientUnits="userSpaceOnUse"><stop stop-color="#fff" stop-opacity="0"/><stop offset=".73" stop-color="#5924B0" stop-opacity=".19"/></linearGradient><linearGradient id="F" x1="488.73" x2="488.73" y1="-3.44" y2="546.72" gradientUnits="userSpaceOnUse"><stop stop-color="#fff" stop-opacity="0"/><stop offset=".73" stop-color="#5924B0" stop-opacity=".19"/></linearGradient><linearGradient id="G" x1="488.73" x2="488.73" y1="-3.44" y2="546.72" gradientUnits="userSpaceOnUse"><stop stop-color="#fff" stop-opacity="0"/><stop offset=".73" stop-color="#5924B0" stop-opacity=".19"/></linearGradient><linearGradient id="H" x1="488.73" x2="488.73" y1="-3.44" y2="546.72" gradientUnits="userSpaceOnUse"><stop stop-color="#fff" stop-opacity="0"/><stop offset=".73" stop-color="#5924B0" stop-opacity=".19"/></linearGradient><linearGradient id="I" x1="488.73" x2="488.73" y1="-3.44" y2="546.72" gradientUnits="userSpaceOnUse"><stop stop-color="#fff" stop-opacity="0"/><stop offset=".73" stop-color="#5924B0" stop-opacity=".19"/></linearGradient><linearGradient id="J" x1="488.73" x2="488.73" y1="-3.44" y2="546.72" gradientUnits="userSpaceOnUse"><stop stop-color="#fff" stop-opacity="0"/><stop offset=".73" stop-color="#5924B0" stop-opacity=".19"/></linearGradient><linearGradient id="K" x1="488.73" x2="488.73" y1="-3.44" y2="546.72" gradientUnits="userSpaceOnUse"><stop stop-color="#fff" stop-opacity="0"/><stop offset=".73" stop-color="#5924B0" stop-opacity=".19"/></linearGradient><linearGradient id="L" x1="488.73" x2="488.73" y1="-3.44" y2="546.72" gradientUnits="userSpaceOnUse"><stop stop-color="#fff" stop-opacity="0"/><stop offset=".73" stop-color="#5924B0" stop-opacity=".19"/></linearGradient><linearGradient id="M" x1="488.73" x2="488.73" y1="-3.44" y2="546.72" gradientUnits="userSpaceOnUse"><stop stop-color="#fff" stop-opacity="0"/><stop offset=".73" stop-color="#5924B0" stop-opacity=".19"/></linearGradient><linearGradient id="N" x1="488.73" x2="488.73" y1="-3.44" y2="546.72" gradientUnits="userSpaceOnUse"><stop stop-color="#fff" stop-opacity="0"/><stop offset=".73" stop-color="#5924B0" stop-opacity=".19"/></linearGradient><linearGradient id="O" x1="488.73" x2="488.73" y1="-3.44" y2="546.72" gradientUnits="userSpaceOnUse"><stop stop-color="#fff" stop-opacity="0"/><stop offset=".73" stop-color="#5924B0" stop-opacity=".19"/></linearGradient><linearGradient id="P" x1="488.73" x2="488.73" y1="-3.44" y2="546.72" gradientUnits="userSpaceOnUse"><stop stop-color="#fff" stop-opacity="0"/><stop offset=".73" stop-color="#5924B0" stop-opacity=".19"/></linearGradient><linearGradient id="Q" x1="488.73" x2="488.73" y1="-3.44" y2="546.72" gradientUnits="userSpaceOnUse"><stop stop-color="#fff" stop-opacity="0"/><stop offset=".73" stop-color="#5924B0" stop-opacity=".19"/></linearGradient><linearGradient id="R" x1="488.73" x2="488.73" y1="-3.44" y2="546.72" gradientUnits="userSpaceOnUse"><stop stop-color="#fff" stop-opacity="0"/><stop offset=".73" stop-color="#5924B0" stop-opacity=".19"/></linearGradient><linearGradient id="S" x1="488.73" x2="488.73" y1="-3.44" y2="546.72" gradientUnits="userSpaceOnUse"><stop stop-color="#fff" stop-opacity="0"/><stop offset=".73" stop-color="#5924B0" stop-opacity=".19"/></linearGradient><linearGradient id="T" x1="488.73" x2="488.73" y1="-3.44" y2="546.72" gradientUnits="userSpaceOnUse"><stop stop-color="#fff" stop-opacity="0"/><stop offset=".73" stop-color="#5924B0" stop-opacity=".19"/></linearGradient><linearGradient id="U" x1="488.73" x2="488.73" y1="-3.44" y2="546.72" gradientUnits="userSpaceOnUse"><stop stop-color="#fff" stop-opacity="0"/><stop offset=".73" stop-color="#5924B0" stop-opacity=".19"/></linearGradient><linearGradient id="V" x1="488.73" x2="488.73" y1="-3.44" y2="546.72" gradientUnits="userSpaceOnUse"><stop stop-color="#fff" stop-opacity="0"/><stop offset=".73" stop-color="#5924B0" stop-opacity=".19"/></linearGradient><linearGradient id="W" x1="488.73" x2="488.73" y1="-3.44" y2="546.72" gradientUnits="userSpaceOnUse"><stop stop-color="#fff" stop-opacity="0"/><stop offset=".73" stop-color="#5924B0" stop-opacity=".19"/></linearGradient><linearGradient id="Y" x1="488.73" x2="488.73" y1="1034.99" y2="484.83" gradientUnits="userSpaceOnUse"><stop stop-color="#fff" stop-opacity="0"/><stop offset=".73" stop-color="#5924B0" stop-opacity=".19"/></linearGradient><linearGradient id="Z" x1="488.73" x2="488.73" y1="1034.99" y2="484.83" gradientUnits="userSpaceOnUse"><stop stop-color="#fff" stop-opacity="0"/><stop offset=".73" stop-color="#5924B0" stop-opacity=".19"/></linearGradient><linearGradient id="aa" x1="488.73" x2="488.73" y1="1034.99" y2="484.83" gradientUnits="userSpaceOnUse"><stop stop-color="#fff" stop-opacity="0"/><stop offset=".73" stop-color="#5924B0" stop-opacity=".19"/></linearGradient><linearGradient id="ab" x1="488.73" x2="488.73" y1="1034.99" y2="484.83" gradientUnits="userSpaceOnUse"><stop stop-color="#fff" stop-opacity="0"/><stop offset=".73" stop-color="#5924B0" stop-opacity=".19"/></linearGradient><linearGradient id="ac" x1="488.73" x2="488.73" y1="1034.99" y2="484.83" gradientUnits="userSpaceOnUse"><stop stop-color="#fff" stop-opacity="0"/><stop offset=".73" stop-color="#5924B0" stop-opacity=".19"/></linearGradient><linearGradient id="ad" x1="488.73" x2="488.73" y1="1034.99" y2="484.83" gradientUnits="userSpaceOnUse"><stop stop-color="#fff" stop-opacity="0"/><stop offset=".73" stop-color="#5924B0" stop-opacity=".19"/></linearGradient><linearGradient id="ae" x1="488.73" x2="488.73" y1="1034.99" y2="484.83" gradientUnits="userSpaceOnUse"><stop stop-color="#fff" stop-opacity="0"/><stop offset=".73" stop-color="#5924B0" stop-opacity=".19"/></linearGradient><linearGradient id="af" x1="488.73" x2="488.73" y1="1034.99" y2="484.83" gradientUnits="userSpaceOnUse"><stop stop-color="#fff" stop-opacity="0"/><stop offset=".73" stop-color="#5924B0" stop-opacity=".19"/></linearGradient><linearGradient id="ag" x1="488.73" x2="488.73" y1="1034.99" y2="484.83" gradientUnits="userSpaceOnUse"><stop stop-color="#fff" stop-opacity="0"/><stop offset=".73" stop-color="#5924B0" stop-opacity=".19"/></linearGradient><linearGradient id="ah" x1="488.73" x2="488.73" y1="1034.99" y2="484.83" gradientUnits="userSpaceOnUse"><stop stop-color="#fff" stop-opacity="0"/><stop offset=".73" stop-color="#5924B0" stop-opacity=".19"/></linearGradient><linearGradient id="ai" x1="488.73" x2="488.73" y1="1034.99" y2="484.83" gradientUnits="userSpaceOnUse"><stop stop-color="#fff" stop-opacity="0"/><stop offset=".73" stop-color="#5924B0" stop-opacity=".19"/></linearGradient><linearGradient id="aj" x1="488.73" x2="488.73" y1="1034.99" y2="484.83" gradientUnits="userSpaceOnUse"><stop stop-color="#fff" stop-opacity="0"/><stop offset=".73" stop-color="#5924B0" stop-opacity=".19"/></linearGradient><linearGradient id="ak" x1="488.73" x2="488.73" y1="1034.99" y2="484.83" gradientUnits="userSpaceOnUse"><stop stop-color="#fff" stop-opacity="0"/><stop offset=".73" stop-color="#5924B0" stop-opacity=".19"/></linearGradient><linearGradient id="al" x1="488.73" x2="488.73" y1="1034.99" y2="484.83" gradientUnits="userSpaceOnUse"><stop stop-color="#fff" stop-opacity="0"/><stop offset=".73" stop-color="#5924B0" stop-opacity=".19"/></linearGradient><linearGradient id="am" x1="488.73" x2="488.73" y1="1034.99" y2="484.83" gradientUnits="userSpaceOnUse"><stop stop-color="#fff" stop-opacity="0"/><stop offset=".73" stop-color="#5924B0" stop-opacity=".19"/></linearGradient><linearGradient id="an" x1="488.73" x2="488.73" y1="1034.99" y2="484.83" gradientUnits="userSpaceOnUse"><stop stop-color="#fff" stop-opacity="0"/><stop offset=".73" stop-color="#5924B0" stop-opacity=".19"/></linearGradient><linearGradient id="ao" x1="488.73" x2="488.73" y1="1034.99" y2="484.83" gradientUnits="userSpaceOnUse"><stop stop-color="#fff" stop-opacity="0"/><stop offset=".73" stop-color="#5924B0" stop-opacity=".19"/></linearGradient><linearGradient id="ap" x1="488.73" x2="488.73" y1="1034.99" y2="484.83" gradientUnits="userSpaceOnUse"><stop stop-color="#fff" stop-opacity="0"/><stop offset=".73" stop-color="#5924B0" stop-opacity=".19"/></linearGradient><linearGradient id="aq" x1="488.73" x2="488.73" y1="1034.99" y2="484.83" gradientUnits="userSpaceOnUse"><stop stop-color="#fff" stop-opacity="0"/><stop offset=".73" stop-color="#5924B0" stop-opacity=".19"/></linearGradient><linearGradient id="ar" x1="488.73" x2="488.73" y1="1034.99" y2="484.83" gradientUnits="userSpaceOnUse"><stop stop-color="#fff" stop-opacity="0"/><stop offset=".73" stop-color="#5924B0" stop-opacity=".19"/></linearGradient><linearGradient id="as" x1="488.73" x2="488.73" y1="1034.99" y2="484.83" gradientUnits="userSpaceOnUse"><stop stop-color="#fff" stop-opacity="0"/><stop offset=".73" stop-color="#5924B0" stop-opacity=".19"/></linearGradient><linearGradient id="at" x1="488.73" x2="488.73" y1="1034.99" y2="484.83" gradientUnits="userSpaceOnUse"><stop stop-color="#fff" stop-opacity="0"/><stop offset=".73" stop-color="#5924B0" stop-opacity=".19"/></linearGradient><linearGradient id="au" x1="488.73" x2="488.73" y1="1034.99" y2="484.83" gradientUnits="userSpaceOnUse"><stop stop-color="#fff" stop-opacity="0"/><stop offset=".73" stop-color="#5924B0" stop-opacity=".19"/></linearGradient><linearGradient id="av" x1="488.73" x2="488.73" y1="1034.99" y2="484.83" gradientUnits="userSpaceOnUse"><stop stop-color="#fff" stop-opacity="0"/><stop offset=".73" stop-color="#5924B0" stop-opacity=".19"/></linearGradient><linearGradient id="aw" x1="488.73" x2="488.73" y1="1034.99" y2="484.83" gradientUnits="userSpaceOnUse"><stop stop-color="#fff" stop-opacity="0"/><stop offset=".73" stop-color="#5924B0" stop-opacity=".19"/></linearGradient><linearGradient id="ax" x1="488.73" x2="488.73" y1="1034.99" y2="484.83" gradientUnits="userSpaceOnUse"><stop stop-color="#fff" stop-opacity="0"/><stop offset=".73" stop-color="#5924B0" stop-opacity=".19"/></linearGradient><linearGradient id="ay" x1="488.73" x2="488.73" y1="1034.99" y2="484.83" gradientUnits="userSpaceOnUse"><stop stop-color="#fff" stop-opacity="0"/><stop offset=".73" stop-color="#5924B0" stop-opacity=".19"/></linearGradient><linearGradient id="az" x1="488.73" x2="488.73" y1="1034.99" y2="484.83" gradientUnits="userSpaceOnUse"><stop stop-color="#fff" stop-opacity="0"/><stop offset=".73" stop-color="#5924B0" stop-opacity=".19"/></linearGradient><linearGradient id="aA" x1="488.73" x2="488.73" y1="1034.99" y2="484.83" gradientUnits="userSpaceOnUse"><stop stop-color="#fff" stop-opacity="0"/><stop offset=".73" stop-color="#5924B0" stop-opacity=".19"/></linearGradient><linearGradient id="aB" x1="488.73" x2="488.73" y1="1034.99" y2="484.83" gradientUnits="userSpaceOnUse"><stop stop-color="#fff" stop-opacity="0"/><stop offset=".73" stop-color="#5924B0" stop-opacity=".19"/></linearGradient><linearGradient id="aC" x1="488.73" x2="488.73" y1="1034.99" y2="484.83" gradientUnits="userSpaceOnUse"><stop stop-color="#fff" stop-opacity="0"/><stop offset=".73" stop-color="#5924B0" stop-opacity=".19"/></linearGradient><linearGradient id="aD" x1="488.73" x2="488.73" y1="1034.99" y2="484.83" gradientUnits="userSpaceOnUse"><stop stop-color="#fff" stop-opacity="0"/><stop offset=".73" stop-color="#5924B0" stop-opacity=".19"/></linearGradient><linearGradient id="aE" x1="488.73" x2="488.73" y1="1034.99" y2="484.83" gradientUnits="userSpaceOnUse"><stop stop-color="#fff" stop-opacity="0"/><stop offset=".73" stop-color="#5924B0" stop-opacity=".19"/></linearGradient><linearGradient id="aF" x1="488.73" x2="488.73" y1="1034.99" y2="484.83" gradientUnits="userSpaceOnUse"><stop stop-color="#fff" stop-opacity="0"/><stop offset=".73" stop-color="#5924B0" stop-opacity=".19"/></linearGradient><linearGradient id="aG" x1="488.73" x2="488.73" y1="1034.99" y2="484.83" gradientUnits="userSpaceOnUse"><stop stop-color="#fff" stop-opacity="0"/><stop offset=".73" stop-color="#5924B0" stop-opacity=".19"/></linearGradient><linearGradient id="aH" x1="488.73" x2="488.73" y1="1034.99" y2="484.83" gradientUnits="userSpaceOnUse"><stop stop-color="#fff" stop-opacity="0"/><stop offset=".73" stop-color="#5924B0" stop-opacity=".19"/></linearGradient><linearGradient id="aI" x1="488.73" x2="488.73" y1="1034.99" y2="484.83" gradientUnits="userSpaceOnUse"><stop stop-color="#fff" stop-opacity="0"/><stop offset=".73" stop-color="#5924B0" stop-opacity=".19"/></linearGradient><linearGradient id="aJ" x1="488.73" x2="488.73" y1="1034.99" y2="484.83" gradientUnits="userSpaceOnUse"><stop stop-color="#fff" stop-opacity="0"/><stop offset=".73" stop-color="#5924B0" stop-opacity=".19"/></linearGradient><linearGradient id="aK" x1="488.73" x2="488.73" y1="1034.99" y2="484.83" gradientUnits="userSpaceOnUse"><stop stop-color="#fff" stop-opacity="0"/><stop offset=".73" stop-color="#5924B0" stop-opacity=".19"/></linearGradient><linearGradient id="aL" x1="488.73" x2="488.73" y1="1034.99" y2="484.83" gradientUnits="userSpaceOnUse"><stop stop-color="#fff" stop-opacity="0"/><stop offset=".73" stop-color="#5924B0" stop-opacity=".19"/></linearGradient><linearGradient id="aM" x1="488.73" x2="488.73" y1="1034.99" y2="484.83" gradientUnits="userSpaceOnUse"><stop stop-color="#fff" stop-opacity="0"/><stop offset=".73" stop-color="#5924B0" stop-opacity=".19"/></linearGradient><linearGradient id="aN" x1="488.73" x2="488.73" y1="1034.99" y2="484.83" gradientUnits="userSpaceOnUse"><stop stop-color="#fff" stop-opacity="0"/><stop offset=".73" stop-color="#5924B0" stop-opacity=".19"/></linearGradient><linearGradient id="aO" x1="488.73" x2="488.73" y1="1034.99" y2="484.83" gradientUnits="userSpaceOnUse"><stop stop-color="#fff" stop-opacity="0"/><stop offset=".73" stop-color="#5924B0" stop-opacity=".19"/></linearGradient><linearGradient id="aP" x1="488.73" x2="488.73" y1="1034.99" y2="484.83" gradientUnits="userSpaceOnUse"><stop stop-color="#fff" stop-opacity="0"/><stop offset=".73" stop-color="#5924B0" stop-opacity=".19"/></linearGradient><linearGradient id="aQ" x1="488.73" x2="488.73" y1="1034.99" y2="484.83" gradientUnits="userSpaceOnUse"><stop stop-color="#fff" stop-opacity="0"/><stop offset=".73" stop-color="#5924B0" stop-opacity=".19"/></linearGradient><linearGradient id="aR" x1="488.73" x2="488.73" y1="1034.99" y2="484.83" gradientUnits="userSpaceOnUse"><stop stop-color="#fff" stop-opacity="0"/><stop offset=".73" stop-color="#5924B0" stop-opacity=".19"/></linearGradient><linearGradient id="aS" x1="488.73" x2="488.73" y1="1034.99" y2="484.83" gradientUnits="userSpaceOnUse"><stop stop-color="#fff" stop-opacity="0"/><stop offset=".73" stop-color="#5924B0" stop-opacity=".19"/></linearGradient><linearGradient id="aT" x1="488.73" x2="488.73" y1="1034.99" y2="484.83" gradientUnits="userSpaceOnUse"><stop stop-color="#fff" stop-opacity="0"/><stop offset=".73" stop-color="#5924B0" stop-opacity=".19"/></linearGradient></defs></svg>