 <svg
                  fill="#fd4a43"
                  xmlns="http://www.w3.org/2000/svg"
                  width="15"
                  height="15"
                  viewBox="0 0 19 19"
                >
                  <path
                    id="Union_5"
                    d="M0,9.5A9.5,9.5,0,1,1,9.5,19,9.5,9.5,0,0,1,0,9.5Zm1.4,0A8.1,8.1,0,1,0,9.5,1.4,8.109,8.109,0,0,0,1.4,9.5Zm10.522,3.433L9.5,10.511,7.078,12.934a.735.735,0,0,1-1.04-1.039L8.459,9.471,6.037,7.048a.735.735,0,0,1,1.04-1.04L9.5,8.43l2.423-2.421a.735.735,0,1,1,1.04,1.039L10.54,9.47l2.423,2.424a.736.736,0,1,1-1.041,1.039Z"
                  ></path>
                </svg>